<?xml version="1.0" standalone="no"?>
<!DOCTYPE svg PUBLIC "-//W3C//DTD SVG 1.1//EN" "http://www.w3.org/Graphics/SVG/1.1/DTD/svg11.dtd">
<svg xmlns="http://www.w3.org/2000/svg">
<defs >
<font id="VarelaRound" horiz-adv-x="588" ><font-face
    font-family="Varela Round"
    units-per-em="1000"
    panose-1="0 0 5 0 0 0 0 0 0 0"
    ascent="918"
    descent="-286"
    alphabetic="0" />
<glyph unicode=" " glyph-name="space" horiz-adv-x="260" />
<glyph unicode="!" glyph-name="exclam" horiz-adv-x="281" d="M126 193T117 201T107 222L89 552V651Q89 673 104 688T141 703Q163 703 177 688T192 651V552L174 222Q173 209 165 201T141 193Q126 193 117 201ZM117 -4T100 13T82 56Q82 80 99 97T141 115Q166 115
183 98T201 56Q201 31 184 14T141 -4Q117 -4 100 13Z" />
<glyph unicode="&quot;" glyph-name="quotedbl" horiz-adv-x="411" d="M100 492T92 499T82 517Q74 558 67 608T60 697Q60 718 75 732T111 747Q132 747 147 733T162 697Q162 659 155 609T140 517Q138 506 130 499T111 492Q100 492 92 499ZM289 492T281 499T271
517Q246 639 249 697Q250 718 265 732T300 747Q321 747 336 733T351 697Q351 659 344 609T329 517Q327 506 319 499T300 492Q289 492 281 499Z" />
<glyph unicode="#" glyph-name="numbersign" horiz-adv-x="612" d="M145 -5T135 5T124 30Q124 34 148 182H71Q57 182 47 192T36 217Q36 231 46 241T71 252H159L183 404H106Q92 404 82 414T71 439Q71 453 81 463T106 474H194L219 632Q221 644 230 652T254 660Q270
660 279 650T289 625Q289 618 265 474H392L417 632Q419 644 428 652T452 660Q468 660 477 650T487 625Q487 618 463 474H540Q554 474 564 464T575 439Q575 425 565 415T540 404H452L428 252H505Q519 252 529 242T540 217Q540 203 530 193T505 182H417L392 24Q390
12 380 4T357 -5Q343 -5 333 5T322 30Q322 34 346 182H219L194 24Q192 12 182 4T159 -5Q145 -5 135 5ZM230 252H357L381 404H254L230 252Z" />
<glyph unicode="$" glyph-name="dollar" horiz-adv-x="616" d="M573 132T545 89T464 21T342 -9V-80Q342 -93 334 -101T311 -110Q298 -110 290 -102T281 -80V-9Q173 -2 79 38Q67 43 59 54T51 79Q51 96 62 108T92 121Q102 121 111 117Q192 81 281 77V307Q213 325
167 346T89 405T58 503Q58 555 83 599T159 672T281 707V777Q281 790 289 799T311 808Q324 808 333 799T342 777V708Q440 704 516 675Q544 665 544 635Q544 619 533 606T504 593Q498 593 488 597Q420 621 342 624V386Q414 369 461 349T541 290T573 185Q573 132 545
89ZM149 466T182 442T281 401V621Q221 613 185 585T149 510Q149 466 182 442ZM483 87T483 191Q483 230 448 251T342 292V77Q483 87 483 191Z" />
<glyph unicode="%" glyph-name="percent" horiz-adv-x="814" d="M127 357T85 407T43 536Q43 614 85 664T204 715Q281 715 323 665T365 536Q365 458 323 408T204 357Q127 357 85 407ZM191 -10T181 -1T171 23Q171 32 176 40L583 691Q593 707 611 707Q626 707 635
699T645 677Q645 666 638 655L234 8Q229 0 221 -5T204 -10Q191 -10 181 -1ZM247 422T271 454T295 536Q295 586 271 618T204 650Q161 650 137 618T113 536Q113 486 137 454T204 422Q247 422 271 454ZM533 -18T491 32T449 161Q449 239 491 289T610 340Q687 340 729
290T771 161Q771 83 729 33T610 -18Q533 -18 491 32ZM653 47T677 79T701 161Q701 211 677 243T610 275Q567 275 543 243T519 161Q519 111 543 79T610 47Q653 47 677 79Z" />
<glyph unicode="&amp;" glyph-name="ampersand" horiz-adv-x="732" d="M232 -10T177 19T97 96T71 196Q71 264 106 312T184 388Q154 424 139 457T123 533Q123 581 145 621T210 684T310 708Q377 708 443 664Q450 660 455 652T461 634Q461 620 451 610T426 599Q418
599 408 604Q360 630 314 630Q264 630 236 603T207 538Q207 509 216 487T245 444T307 383L516 186Q530 206 549 247Q554 258 564 265T588 272Q606 272 618 261T630 231Q630 221 625 211Q605 168 577 129L644 65Q652 58 656 51T660 33Q660 16 649 4T619 -8Q601 -8
588 4L521 68Q478 32 426 11T316 -10Q232 -10 177 19ZM393 67T462 123L239 332Q205 310 181 275T157 193Q157 138 200 103T308 67Q393 67 462 123Z" />
<glyph unicode="&apos;" glyph-name="quotesingle" horiz-adv-x="222" d="M100 492T92 499T82 517Q74 558 67 608T60 697Q60 718 75 732T111 747Q132 747 147 733T162 697Q162 659 155 609T140 517Q138 506 130 499T111 492Q100 492 92 499Z" />
<glyph unicode="(" glyph-name="parenleft" horiz-adv-x="312" d="M213 -154T207 -150T192 -136Q122 -53 87 62T51 307Q51 436 86 551T192 750Q200 760 206 764T225 768Q241 768 253 757T265 729Q265 718 259 707Q204 616 173 515T142 307Q142 201 173 100T259
-93Q265 -104 265 -115Q265 -132 253 -143T225 -154Q213 -154 207 -150Z" />
<glyph unicode=")" glyph-name="parenright" horiz-adv-x="312" d="M72 -154T60 -143T48 -115Q48 -104 54 -93Q109 -2 140 99T171 307Q171 413 140 514T54 707Q48 718 48 729Q48 746 60 757T88 768Q100 768 106 764T121 750Q191 667 226 552T262 307Q262 178 227
63T121 -136Q113 -146 107 -150T88 -154Q72 -154 60 -143Z" />
<glyph unicode="*" glyph-name="asterisk" horiz-adv-x="417" d="M196 384T187 392T178 413Q178 417 194 519Q114 454 110 452Q104 449 97 449Q80 449 70 464Q66 471 66 480Q66 497 80 504L180 543L80 582Q66 590 66 607Q66 616 70 623Q80 638 96 638Q103 638
110 634Q114 632 194 567Q178 669 178 673Q178 685 187 693T208 702Q220 702 229 694T238 673Q238 669 222 567Q302 632 306 634Q311 638 320 638Q336 638 346 623Q350 615 350 608Q350 591 336 582L236 543L336 504Q350 496 350 479Q350 472 346 464Q336 449 319
449Q312 449 306 452Q302 454 222 519Q238 417 238 413Q238 401 229 393T208 384Q196 384 187 392Z" />
<glyph unicode="+" glyph-name="plus" horiz-adv-x="562" d="M265 104T254 115T242 143V307H78Q62 307 51 318T40 345Q40 362 51 373T78 384H242V548Q242 565 253 576T281 587Q298 587 309 576T320 548V384H483Q500 384 511 373T522 345Q522 329 511 318T483 307H320V143Q320
127 309 116T281 104Q265 104 254 115Z" />
<glyph unicode="," glyph-name="comma" horiz-adv-x="260" d="M80 -151T72 -142T63 -121Q63 -105 78 -96Q103 -81 116 -61T129 -3H125Q102 -3 86 13T69 53V59Q69 82 85 98T125 115H135Q158 115 174 99T191 59V0Q191 -96 109 -146Q101 -151 92 -151Q80 -151 72 -142Z" />
<glyph unicode="-" glyph-name="hyphen" horiz-adv-x="408" d="M92 240T81 251T69 280Q69 297 80 309T109 321H298Q315 321 327 309T339 280Q339 263 327 252T298 240H109Q92 240 81 251Z" />
<glyph unicode="." glyph-name="period" horiz-adv-x="260" d="M102 -3T86 13T69 53V59Q69 82 85 98T125 115H135Q158 115 174 99T191 59V53Q191 30 175 14T135 -3H125Q102 -3 86 13Z" />
<glyph unicode="/" glyph-name="slash" horiz-adv-x="443" d="M71 -95T60 -83T48 -54Q48 -48 51 -39L316 736Q320 748 330 756T355 764Q373 764 384 752T396 723Q396 717 393 708L128 -67Q124 -79 114 -87T89 -95Q71 -95 60 -83Z" />
<glyph unicode="0" glyph-name="zero" horiz-adv-x="628" d="M182 -10T113 87T43 349Q43 514 112 611T314 708Q445 708 515 611T585 349Q585 184 515 87T314 -10Q182 -10 113 87ZM401 74T447 147T494 349Q494 477 448 550T314 623Q227 623 181 550T134 349Q134
220 180 147T314 74Q401 74 447 147Z" />
<glyph unicode="1" glyph-name="one" horiz-adv-x="628" d="M159 0T147 12T135 42Q135 60 147 72T177 85H296V592L194 542Q180 536 171 536Q152 536 140 548T128 579Q128 607 154 620L290 691Q304 698 318 698H339Q359 698 373 684T387 650V85H486Q504 85 516
73T529 42Q529 24 517 12T486 0H177Q159 0 147 12Z" />
<glyph unicode="2" glyph-name="two" horiz-adv-x="628" d="M95 0T80 14T65 52Q65 104 95 148T169 225T284 305Q345 344 381 371T441 430T465 498Q465 555 428 588T307 622Q217 622 136 586Q126 581 117 581Q101 581 90 592T79 620Q79 645 101 657Q203 708 323
708Q387 708 439 683T522 611T553 505Q553 446 519 396T436 307T311 219Q241 172 206 144T156 85H504Q522 85 534 73T547 42Q547 24 535 12T504 0H118Q95 0 80 14Z" />
<glyph unicode="3" glyph-name="three" horiz-adv-x="628" d="M183 -10T85 30Q73 35 66 44T59 68Q59 85 70 97T99 110Q108 110 118 106Q190 77 277 77Q355 77 408 102T462 188Q462 314 241 314H225Q208 314 196 326T183 356Q183 373 195 385T225 398H231Q331 398
384 428T437 519Q437 567 397 595T279 623Q195 623 124 590Q114 586 106 586Q91 586 80 596T69 623Q69 646 89 657Q185 708 287 708Q402 708 465 661T528 528Q528 459 494 420T407 361Q464 348 508 307T553 183Q553 91 481 41T294 -10Q183 -10 85 30Z" />
<glyph unicode="4" glyph-name="four" horiz-adv-x="628" d="M414 -5T401 8T388 40V176H83Q59 176 42 192T25 233V242Q25 263 37 278L351 679Q359 690 372 696T401 703H421Q447 703 463 687T479 645V257H555Q572 257 584 245T596 216Q596 199 584 188T555 176H479V40Q479
21 466 8T433 -5Q414 -5 401 8ZM122 257H388V600L122 257Z" />
<glyph unicode="5" glyph-name="five" horiz-adv-x="628" d="M175 -10T84 48Q74 55 69 62T64 84Q64 102 75 114T104 127Q115 127 125 122Q204 80 285 80Q380 80 430 112T480 221Q480 283 439 319T325 355Q242 355 171 312Q169 311 160 306T136 300Q108 300 89
316T70 358Q70 370 72 382L117 648Q120 671 134 684T170 698H491Q509 698 521 686T534 655Q534 637 522 625T491 613H201L169 401Q245 442 338 442Q412 442 464 413T544 333T571 216Q571 115 502 53T297 -10Q175 -10 84 48Z" />
<glyph unicode="6" glyph-name="six" horiz-adv-x="628" d="M59 -10T59 348Q59 435 87 517T181 653T349 708Q405 708 447 696T526 665Q535 660 541 650T547 629Q547 613 536 601T506 588Q497 588 489 591Q427 620 356 620Q243 620 197 541T146 364Q176 402 226
427T351 452Q419 452 470 423T551 341T580 217Q580 154 550 102T464 20T333 -10Q59 -10 59 348ZM380 75T415 94T470 147T489 219Q489 287 451 328T340 369Q210 369 151 259Q178 75 334 75Q380 75 415 94Z" />
<glyph unicode="7" glyph-name="seven" horiz-adv-x="628" d="M211 -5T198 8T185 40Q185 52 191 64L466 611H103Q85 611 73 623T60 654Q60 672 72 685T103 698H511Q535 698 551 683T567 645Q567 623 557 601L273 20Q267 9 255 2T230 -5Q211 -5 198 8Z" />
<glyph unicode="8" glyph-name="eight" horiz-adv-x="628" d="M220 -10T161 19T74 92T47 185Q47 324 196 374Q145 391 113 429T80 526Q80 569 103 611T179 680T314 708Q396 708 448 681T524 611T548 526Q548 468 516 430T432 374Q581 324 581 185Q581 136 554
92T468 19T314 -10Q220 -10 161 19ZM388 412T422 445T457 520Q457 567 421 597T314 628Q244 628 208 598T171 520Q171 478 205 445T314 412Q388 412 422 445ZM376 70T415 90T472 140T490 195Q490 259 439 294T314 330Q240 330 189 295T138 195Q138 169 155 140T212
91T314 70Q376 70 415 90Z" />
<glyph unicode="9" glyph-name="nine" horiz-adv-x="628" d="M223 -10T181 2T102 33Q93 38 87 48T81 69Q81 85 92 97T122 110Q131 110 139 107Q201 78 272 78Q385 78 431 157T482 334Q452 296 402 271T277 246Q209 246 158 275T77 357T48 481Q48 544 78 596T164
678T295 708Q569 708 569 350Q569 263 541 181T447 45T279 -10Q223 -10 181 2ZM418 329T477 439Q450 623 294 623Q248 623 213 604T158 551T139 479Q139 411 177 370T288 329Q418 329 477 439Z" />
<glyph unicode=":" glyph-name="colon" horiz-adv-x="260" d="M102 395T86 411T69 451V457Q69 480 85 496T125 513H135Q158 513 174 497T191 457V451Q191 428 175 412T135 395H125Q102 395 86 411ZM102 -3T86 13T69 53V59Q69 82 85 98T125 115H135Q158 115 174
99T191 59V53Q191 30 175 14T135 -3H125Q102 -3 86 13Z" />
<glyph unicode=";" glyph-name="semicolon" horiz-adv-x="260" d="M102 395T86 411T69 451V457Q69 480 85 496T125 513H135Q158 513 174 497T191 457V451Q191 428 175 412T135 395H125Q102 395 86 411ZM80 -151T72 -142T63 -121Q63 -105 78 -96Q103 -81 116 -61T129
-3H125Q102 -3 86 13T69 53V59Q69 82 85 98T125 115H135Q158 115 174 99T191 59V0Q191 -96 109 -146Q101 -151 92 -151Q80 -151 72 -142Z" />
<glyph unicode="&lt;" glyph-name="less" horiz-adv-x="580" d="M478 58T470 61L71 240Q54 248 45 261T35 292V300Q35 317 44 330T71 352L470 531Q478 534 486 534Q503 534 514 523T526 494Q526 482 519 472T499 456L139 296L499 136Q511 131 518 121T526 98Q526
81 515 70T486 58Q478 58 470 61Z" />
<glyph unicode="=" glyph-name="equal" horiz-adv-x="712" d="M96 404T85 415T73 443Q73 460 84 471T112 482H600Q617 482 628 471T639 443Q639 427 628 416T600 404H112Q96 404 85 415ZM96 180T85 191T73 219Q73 236 84 247T112 258H600Q617 258 628 247T639
219Q639 203 628 192T600 180H112Q96 180 85 191Z" />
<glyph unicode="&gt;" glyph-name="greater" horiz-adv-x="580" d="M77 58T66 69T54 98Q54 110 61 120T81 136L441 296L81 456Q69 461 62 471T54 494Q54 511 65 522T94 534Q103 534 110 531L509 352Q526 344 535 331T545 300V292Q545 275 536 262T509 240L110
61Q103 58 94 58Q77 58 66 69Z" />
<glyph unicode="?" glyph-name="question" horiz-adv-x="497" d="M202 186T190 197T177 225Q177 270 193 304T230 360T288 412Q326 442 344 464T362 514Q362 623 219 623Q184 623 151 615T91 590Q79 582 66 582Q50 582 38 594T26 622Q26 645 51 660Q92 686 134
697T227 708Q329 708 390 657T452 519Q452 480 438 451T404 401T351 354Q308 320 287 293T265 225Q265 209 252 198T221 186Q202 186 190 197ZM195 -4T178 13T160 56Q160 80 177 97T219 115Q244 115 261 98T279 56Q279 31 262 14T219 -4Q195 -4 178 13Z" />
<glyph unicode="@" glyph-name="at" horiz-adv-x="898" d="M296 -83T216 -36T93 91T49 262Q49 375 107 473T262 629T473 688Q576 688 663 644T802 521T854 342Q854 279 835 223T774 131T668 95Q618 95 590 117T556 169Q525 131 482 113T391 94Q311 94 266 143T221
270Q221 345 254 400T342 484T458 513Q533 513 586 462L589 479Q591 492 601 501T626 510Q641 510 651 500T662 473L661 462L628 272Q621 235 621 207Q621 179 633 161T671 142Q733 142 766 196T800 342Q800 434 753 500T631 601T473 635Q374 635 289 584T152 447T101
262Q101 188 136 121T239 11T400 -31Q461 -31 506 -20T609 15Q615 17 620 17Q631 17 638 10T645 -7Q645 -14 641 -20T631 -30Q525 -83 400 -83Q296 -83 216 -36ZM535 163T559 303L575 396Q531 442 462 442Q419 442 382 423T321 368T298 280Q298 222 330 193T413
163Q535 163 559 303Z" />
<glyph unicode="A" glyph-name="A" horiz-adv-x="746" d="M75 -5T63 8T50 40Q50 48 55 60L310 662Q318 680 332 691T368 703H378Q399 703 413 692T436 662L691 60Q696 48 696 40Q696 21 684 8T651 -5Q637 -5 626 2T608 23L543 179H203L138 23Q132 10 121 3T95
-5Q75 -5 63 8ZM238 262H508L373 587L238 262Z" />
<glyph unicode="B" glyph-name="B" horiz-adv-x="693" d="M123 0T110 13T97 45V652Q97 671 110 684T142 698H378Q485 698 543 649T602 517Q602 459 575 421T504 363Q564 344 602 302T641 196Q641 104 579 52T384 0H142Q123 0 110 13ZM354 396Q443 396 479 426T515
510Q515 557 477 585T371 613H188V396H354ZM375 85Q472 85 512 115T553 200Q553 314 376 314H188V85H375Z" />
<glyph unicode="C" glyph-name="C" horiz-adv-x="695" d="M305 -10T226 33T101 158T55 349Q55 458 100 539T225 664T405 708Q473 708 526 692T633 646Q655 634 655 608Q655 593 644 582T615 570Q605 570 597 574Q553 597 511 609T414 621Q328 621 268 586T177
489T146 349Q146 271 176 210T267 113T414 77Q469 77 511 89T597 124Q605 128 615 128Q633 128 644 117T655 90Q655 64 633 52Q580 22 527 6T405 -10Q305 -10 226 33Z" />
<glyph unicode="D" glyph-name="D" horiz-adv-x="751" d="M123 0T110 13T97 45V652Q97 671 110 684T142 698H343Q457 698 536 648T656 517T696 349Q696 261 656 181T537 51T343 0H142Q123 0 110 13ZM332 85Q414 85 476 118T572 211T606 349Q606 427 572 486T476
579T332 613H188V85H332Z" />
<glyph unicode="E" glyph-name="E" horiz-adv-x="638" d="M123 0T110 13T97 45V652Q97 671 110 684T142 698H543Q561 698 573 686T586 655Q586 637 574 625T543 613H188V392H507Q525 392 537 380T550 349Q550 331 538 319T507 307H188V85H543Q561 85 573 73T586
42Q586 24 574 12T543 0H142Q123 0 110 13Z" />
<glyph unicode="F" glyph-name="F" horiz-adv-x="608" d="M123 -5T110 8T97 40V652Q97 671 110 684T142 698H531Q549 698 561 686T574 655Q574 637 562 625T531 613H188V392H496Q514 392 526 380T539 349Q539 331 527 319T496 307H188V40Q188 21 175 8T142 -5Q123
-5 110 8Z" />
<glyph unicode="G" glyph-name="G" horiz-adv-x="757" d="M303 -10T223 35T99 162T55 348Q55 454 101 536T226 663T403 708Q481 708 539 689T652 636Q660 632 666 622T672 600Q672 583 661 571T630 559Q619 559 609 564Q562 592 515 606T413 620Q337 620 276 588T181
495T146 348Q146 270 178 209T272 112T418 76Q512 76 593 120V301H428Q411 301 399 313T387 342Q387 359 399 371T428 383H625Q645 383 659 369T673 335V108Q673 87 663 71T635 46Q523 -10 406 -10Q303 -10 223 35Z" />
<glyph unicode="H" glyph-name="H" horiz-adv-x="755" d="M123 -5T110 8T97 40V657Q97 676 110 689T142 703Q161 703 174 690T188 657V391H567V657Q567 676 580 689T612 703Q631 703 644 690T658 657V40Q658 21 645 8T612 -5Q593 -5 580 8T567 40V306H188V40Q188
21 175 8T142 -5Q123 -5 110 8Z" />
<glyph unicode="I" glyph-name="I" horiz-adv-x="285" d="M123 -5T110 8T97 40V657Q97 676 110 689T142 703Q161 703 174 690T188 657V40Q188 21 175 8T142 -5Q123 -5 110 8Z" />
<glyph unicode="J" glyph-name="J" horiz-adv-x="466" d="M95 -10T35 24Q13 37 13 61Q13 77 23 89T51 102Q61 102 69 98Q115 76 162 76Q216 76 249 107T283 224V657Q283 676 296 689T328 703Q347 703 360 690T374 657V230Q374 99 316 45T168 -10Q95 -10 35 24Z" />
<glyph unicode="K" glyph-name="K" horiz-adv-x="670" d="M123 -5T110 8T97 40V657Q97 676 110 689T142 703Q161 703 174 690T188 657V339L530 687Q544 703 564 703Q581 703 593 692T606 663Q606 643 595 632L364 402L629 68Q640 54 640 39Q641 21 628 8T596 -5Q573
-5 560 13L302 342L188 227V40Q188 21 175 8T142 -5Q123 -5 110 8Z" />
<glyph unicode="L" glyph-name="L" horiz-adv-x="576" d="M134 0T116 18T97 63V657Q97 676 110 689T142 703Q161 703 174 690T188 657V91H515Q534 91 547 78T561 45Q561 26 548 13T515 0H160Q134 0 116 18Z" />
<glyph unicode="M" glyph-name="M" horiz-adv-x="966" d="M123 -5T110 8T97 40V637Q97 664 116 683T162 703H195Q215 703 231 691T256 661L483 95L710 661Q718 679 734 691T771 703H804Q831 703 850 684T869 637V40Q869 21 856 8T824 -5Q805 -5 792 8T778 40V608L547
37Q539 18 522 7T483 -5Q462 -5 445 6T419 37L188 608V40Q188 21 175 8T142 -5Q123 -5 110 8Z" />
<glyph unicode="N" glyph-name="N" horiz-adv-x="803" d="M123 -5T110 8T97 40V637Q97 664 116 683T162 703H175Q207 703 230 673L615 117V657Q615 676 628 689T660 703Q679 703 692 690T706 657V60Q706 33 687 14T640 -5H628Q612 -5 598 2T575 22L188 581V40Q188
21 175 8T142 -5Q123 -5 110 8Z" />
<glyph unicode="O" glyph-name="O" horiz-adv-x="812" d="M301 -10T222 36T100 163T55 349Q57 454 100 535T222 662T406 708Q511 708 589 662T711 535T757 349Q755 245 712 164T590 36T406 -10Q301 -10 222 36ZM486 75T545 111T635 209T666 349Q666 427 635 489T545
587T406 623Q325 623 267 587T177 489T146 349Q146 271 177 209T266 111T406 75Q486 75 545 111Z" />
<glyph unicode="P" glyph-name="P" horiz-adv-x="672" d="M123 -5T110 8T97 40V652Q97 671 110 684T142 698H370Q465 698 525 666T611 584T637 476Q637 418 611 368T525 286T370 254H188V40Q188 21 175 8T142 -5Q123 -5 110 8ZM361 340Q463 340 504 379T546 476Q546
534 505 573T361 612H188V340H361Z" />
<glyph unicode="Q" glyph-name="Q" horiz-adv-x="812" d="M588 -152T575 -136L466 -6Q441 -10 406 -10Q301 -10 222 36T100 163T55 349Q57 454 100 535T222 662T406 708Q511 708 589 662T711 535T757 349Q755 232 701 145T550 17L638 -80Q650 -92 650 -109Q651
-126 638 -139T607 -152Q588 -152 575 -136ZM486 75T545 111T635 209T666 349Q666 427 635 489T545 587T406 623Q325 623 267 587T177 489T146 349Q146 271 177 209T266 111T406 75Q486 75 545 111Z" />
<glyph unicode="R" glyph-name="R" horiz-adv-x="712" d="M123 -5T110 8T97 40V652Q97 671 110 684T142 698H375Q511 698 579 642T647 495Q647 435 614 386T516 314Q588 295 614 225T641 86V40Q641 21 628 8T596 -5Q575 -5 563 7T550 40V70Q550 120 541 162T498
238T395 272H188V40Q188 21 175 8T142 -5Q123 -5 110 8ZM369 358Q455 358 505 392T556 488Q556 548 513 580T364 612H188V358H369Z" />
<glyph unicode="S" glyph-name="S" horiz-adv-x="616" d="M190 -10T79 38Q67 43 59 54T51 79Q51 96 62 108T92 121Q102 121 111 117Q203 76 308 76Q483 76 483 191Q483 221 461 241T405 272T311 300Q230 321 180 340T94 399T58 503Q58 560 88 606T176 680T317
708Q427 708 516 675Q544 665 544 635Q544 619 533 606T504 593Q498 593 488 597Q410 624 327 624Q248 624 199 594T149 510Q149 474 172 452T231 417T328 390Q407 371 455 352T538 293T573 185Q573 129 541 85T451 15T317 -10Q190 -10 79 38Z" />
<glyph unicode="T" glyph-name="T" horiz-adv-x="609" d="M285 -5T272 8T259 40V613H55Q37 613 25 625T13 655Q13 673 25 685T55 698H553Q571 698 583 686T596 655Q596 637 584 625T553 613H350V40Q350 21 337 8T304 -5Q285 -5 272 8Z" />
<glyph unicode="U" glyph-name="U" horiz-adv-x="758" d="M308 -10T242 20T134 111T92 262V657Q92 676 105 689T137 703Q156 703 169 690T183 657V259Q183 199 210 157T283 94T379 73Q430 73 475 94T547 157T575 259V657Q575 676 588 689T620 703Q639 703 652
690T666 657V262Q666 173 624 112T516 20T379 -10Q308 -10 242 20Z" />
<glyph unicode="V" glyph-name="V" horiz-adv-x="694" d="M295 -5T274 41L27 640Q24 648 24 657Q24 678 36 690T69 703Q83 703 94 695T112 672L347 86L582 672Q588 686 599 694T625 703Q646 703 658 691T670 657Q670 648 667 640L420 41Q399 -5 358 -5H336Q295
-5 274 41Z" />
<glyph unicode="W" glyph-name="W" horiz-adv-x="1011" d="M266 -5T251 6T227 40L31 642Q28 653 28 659Q27 678 39 690T72 703Q88 703 100 693T117 667L285 115L454 665Q459 682 473 692T506 703Q524 703 538 693T558 665L727 115L895 667Q900 683 912 693T940
703Q960 703 972 691T984 659Q984 653 981 642L785 40Q777 18 762 7T726 -5Q706 -5 690 7T667 40L506 550L345 40Q339 20 323 8T286 -5Q266 -5 251 6Z" />
<glyph unicode="X" glyph-name="X" horiz-adv-x="671" d="M69 -5T57 7T44 37Q44 53 53 65L284 349L55 631Q46 643 46 659Q46 678 58 690T90 703Q101 703 111 698T127 685L338 417L549 687Q560 703 582 703Q600 703 613 691T626 660Q626 646 618 635L387 350L618
66Q627 56 627 40Q627 21 615 8T582 -5Q560 -5 546 14L332 283L121 13Q106 -5 86 -5Q69 -5 57 7Z" />
<glyph unicode="Y" glyph-name="Y" horiz-adv-x="639" d="M301 -5T288 8T274 40V295L35 630Q27 643 27 657Q27 676 39 689T71 703Q96 703 111 680L320 376L529 680Q544 703 569 703Q588 703 601 690T613 657Q613 643 605 630L365 295V40Q365 21 352 8T320 -5Q301
-5 288 8Z" />
<glyph unicode="Z" glyph-name="Z" horiz-adv-x="638" d="M81 0T64 17T47 58Q47 80 59 95L477 611H92Q74 611 62 623T49 654Q49 672 61 685T92 698H526Q554 698 570 680T587 636Q587 626 583 615T571 596L158 85H550Q568 85 580 73T593 42Q593 24 581 12T550 0H105Q81
0 64 17Z" />
<glyph unicode="[" glyph-name="bracketleft" horiz-adv-x="322" d="M113 -132T100 -119T87 -88V688Q87 706 100 719T131 732H258Q273 732 283 722T294 696Q294 681 284 671T258 660H166V-61H258Q273 -61 283 -71T294 -96Q294 -110 284 -121T258 -132H131Q113
-132 100 -119Z" />
<glyph unicode="\" glyph-name="backslash" horiz-adv-x="443" d="M339 -95T329 -87T315 -67L50 708Q47 717 47 723Q47 740 58 752T88 764Q103 764 113 756T127 736L392 -39Q395 -48 395 -54Q395 -71 384 -83T354 -95Q339 -95 329 -87Z" />
<glyph unicode="]" glyph-name="bracketright" horiz-adv-x="322" d="M49 -132T39 -121T28 -96Q28 -82 38 -72T64 -61H156V660H64Q49 660 39 670T28 696Q28 711 38 721T64 732H191Q209 732 222 719T235 688V-88Q235 -106 222 -119T191 -132H64Q49 -132 39 -121Z" />
<glyph unicode="^" glyph-name="asciicircum" horiz-adv-x="524" d="M103 415T93 425T82 451Q82 457 88 469L193 668Q202 684 213 693T242 702H280Q298 702 309 693T329 668L434 469Q440 457 440 451Q440 436 430 426T404 415Q387 415 378 426Q381 423 261 616L159
450L144 426Q135 415 118 415Q103 415 93 425Z" />
<glyph unicode="_" glyph-name="underscore" horiz-adv-x="663" d="M72 -147T62 -138T52 -114Q52 -101 62 -91T85 -81H578Q592 -81 601 -91T611 -114Q611 -128 602 -137T578 -147H85Q72 -147 62 -138Z" />
<glyph unicode="`" glyph-name="grave" horiz-adv-x="246" d="M187 567T178 578L109 660Q99 671 99 685Q99 702 109 712T136 722Q159 722 169 703L220 613Q227 603 227 594Q227 582 220 575T200 567Q187 567 178 578Z" />
<glyph unicode="a" glyph-name="a" horiz-adv-x="562" d="M165 -10T128 8T68 60T46 140Q46 214 104 258T276 302H397V310Q397 376 365 405T263 434Q225 434 196 428T130 410Q122 408 117 408Q102 408 91 419T80 446Q80 473 106 484Q191 520 279 520Q348 520 395
492T465 420T488 323V40Q488 21 475 8T442 -5Q423 -5 410 8T397 40V66Q323 -10 209 -10Q165 -10 128 8ZM287 70T328 91T397 145V229H288Q137 229 137 150Q137 114 161 92T243 70Q287 70 328 91Z" />
<glyph unicode="b" glyph-name="b" horiz-adv-x="631" d="M243 -10T170 66V40Q170 21 157 8T124 -5Q105 -5 92 8T79 40V689Q79 708 92 721T124 735Q144 735 157 722T170 689V444Q243 520 341 520Q403 520 458 489T548 397T583 255Q583 174 549 114T459 22T341
-10Q243 -10 170 66ZM402 75T447 122T492 255Q492 341 447 388T328 435Q282 435 242 415T170 360V150Q201 116 241 96T328 75Q402 75 447 122Z" />
<glyph unicode="c" glyph-name="c" horiz-adv-x="533" d="M243 -10T182 22T85 114T48 255Q48 336 84 396T182 488T315 520Q368 520 406 507T478 472Q498 459 498 437Q498 422 487 410T460 397Q449 397 438 403Q405 420 382 427T323 435Q237 435 188 386T139 255Q139
174 188 125T323 75Q358 75 381 82T438 107Q449 113 460 113Q475 113 486 101T498 73Q498 51 478 38Q445 17 407 4T315 -10Q243 -10 182 22Z" />
<glyph unicode="d" glyph-name="d" horiz-adv-x="631" d="M228 -10T173 21T83 113T48 255Q48 336 82 396T172 488T290 520Q388 520 461 444V689Q461 709 474 722T507 735Q526 735 539 722T552 689V40Q552 21 539 8T507 -5Q488 -5 475 8T461 40V66Q388 -10 290
-10Q228 -10 173 21ZM349 75T389 95T461 150V360Q430 394 390 414T303 435Q229 435 184 388T139 255Q139 169 184 122T303 75Q349 75 389 95Z" />
<glyph unicode="e" glyph-name="e" horiz-adv-x="566" d="M185 -10T117 59T48 255Q48 326 74 386T154 483T287 520Q361 520 415 486T497 394T525 268Q525 249 513 236T479 223H140Q148 153 192 114T315 75Q357 75 388 83T450 106Q458 110 468 110Q484 110 496
99T508 71Q508 49 482 34Q443 12 405 1T307 -10Q185 -10 117 59ZM435 297Q432 346 410 379T354 427T287 443Q253 443 220 428T165 379T140 297H435Z" />
<glyph unicode="f" glyph-name="f" horiz-adv-x="382" d="M143 -5T130 8T117 40V432H58Q42 432 31 443T19 471Q19 488 30 499T58 510H117V568Q117 628 138 666T194 722T267 740Q314 740 354 720Q364 715 370 706T377 685Q377 670 366 659T340 647Q329 647 317
650Q293 653 290 653Q249 653 229 634T208 565V510H333Q350 510 361 499T372 471Q372 455 361 444T333 432H208V40Q208 21 195 8T162 -5Q143 -5 130 8Z" />
<glyph unicode="g" glyph-name="g" horiz-adv-x="631" d="M259 -240T200 -225T103 -188Q85 -177 85 -153Q85 -137 96 -125T125 -112Q133 -112 143 -116Q219 -154 308 -154Q461 -154 461 9V76Q390 0 290 0Q231 0 176 29T84 117T48 260Q48 344 84 402T175 490T290
520Q390 520 461 444V469Q461 488 474 501T506 515Q525 515 538 502T552 469V22Q552 -104 491 -172T317 -240Q259 -240 200 -225ZM356 83T392 103T461 157V363Q428 397 392 417T309 437Q234 437 187 392T139 260Q139 174 186 129T309 83Q356 83 392 103Z" />
<glyph unicode="h" glyph-name="h" horiz-adv-x="609" d="M105 -5T92 8T79 40V689Q79 708 92 721T124 735Q143 735 156 722T170 689V428Q208 470 252 495T356 520Q411 520 451 494T513 423T535 324V40Q535 21 522 8T489 -5Q470 -5 457 8T444 40V314Q444 436 334
436Q284 436 245 410T170 340V40Q170 21 157 8T124 -5Q105 -5 92 8Z" />
<glyph unicode="i" glyph-name="i" horiz-adv-x="249" d="M101 614T86 629T71 665V669Q71 690 86 705T122 720H128Q149 720 164 705T179 669V665Q179 644 164 629T128 614H122Q101 614 86 629ZM105 -5T92 8T79 40V469Q79 488 92 501T124 515Q144 515 157 502T170
469V40Q170 21 157 8T124 -5Q105 -5 92 8Z" />
<glyph unicode="j" glyph-name="j" horiz-adv-x="254" d="M106 614T91 629T76 665V669Q76 690 91 705T127 720H133Q154 720 169 705T184 669V665Q184 644 169 629T133 614H127Q106 614 91 629ZM8 -240T-19 -231Q-31 -227 -38 -218T-45 -195Q-45 -180 -34 -169T-7
-157Q-1 -157 8 -158T23 -160Q54 -160 69 -149T84 -101V468Q84 487 97 500T129 514Q149 514 162 501T175 468V-103Q175 -165 144 -202T44 -240Q8 -240 -19 -231Z" />
<glyph unicode="k" glyph-name="k" horiz-adv-x="545" d="M105 -5T92 8T79 40V689Q79 708 92 721T124 735Q143 735 156 722T170 689V280L408 500Q423 513 438 513Q461 513 471 500T482 469Q482 452 465 435L321 306L502 66Q512 53 512 39Q512 19 499 7T466 -5Q456
-5 446 0T429 14L257 248L170 169V40Q170 21 157 8T124 -5Q105 -5 92 8Z" />
<glyph unicode="l" glyph-name="l" horiz-adv-x="249" d="M105 -5T92 8T79 40V689Q79 708 92 721T124 735Q144 735 157 722T170 689V40Q170 21 157 8T124 -5Q105 -5 92 8Z" />
<glyph unicode="m" glyph-name="m" horiz-adv-x="918" d="M105 -5T92 8T79 40V469Q79 488 92 501T124 515Q143 515 156 502T170 469V428Q198 468 237 494T340 520Q396 520 436 490T493 417Q555 520 677 520Q733 520 770 492T826 420T844 328V40Q844 21 831 8T798
-5Q779 -5 766 8T753 40V310Q753 375 730 405T651 436Q600 436 567 410T507 340V40Q507 21 494 8T461 -5Q442 -5 429 8T416 40V310Q416 375 393 405T314 436Q263 436 230 410T170 340V40Q170 21 157 8T124 -5Q105 -5 92 8Z" />
<glyph unicode="n" glyph-name="n" horiz-adv-x="609" d="M105 -5T92 8T79 40V469Q79 488 92 501T124 515Q143 515 156 502T170 469V428Q208 470 252 495T356 520Q411 520 451 494T513 423T535 324V40Q535 21 522 8T489 -5Q470 -5 457 8T444 40V314Q444 436 334
436Q284 436 245 410T170 340V40Q170 21 157 8T124 -5Q105 -5 92 8Z" />
<glyph unicode="o" glyph-name="o" horiz-adv-x="608" d="M227 -10T169 23T80 116T48 255Q48 333 79 393T169 487T304 520Q380 520 438 487T528 394T560 255Q560 177 528 117T438 23T304 -10Q227 -10 169 23ZM345 73T382 92T444 152T469 256Q469 318 445 359T383
418T304 437Q262 437 225 419T163 359T139 256Q139 193 163 152T224 92T304 73Q345 73 382 92Z" />
<glyph unicode="p" glyph-name="p" horiz-adv-x="631" d="M105 -235T92 -222T79 -189V470Q79 489 92 502T124 515Q143 515 156 502T170 470V444Q243 520 341 520Q403 520 458 489T548 397T583 255Q583 174 549 114T459 22T341 -10Q243 -10 170 66V-189Q170 -209
157 -222T124 -235Q105 -235 92 -222ZM402 75T447 122T492 255Q492 341 447 388T328 435Q282 435 242 415T170 360V150Q201 116 241 96T328 75Q402 75 447 122Z" />
<glyph unicode="q" glyph-name="q" horiz-adv-x="631" d="M488 -235T475 -222T461 -189V66Q388 -10 290 -10Q228 -10 173 21T83 113T48 255Q48 336 82 396T172 488T290 520Q388 520 461 444V470Q461 489 474 502T507 515Q526 515 539 502T552 470V-189Q552 -208
539 -221T507 -235Q488 -235 475 -222ZM349 75T389 95T461 150V360Q430 394 390 414T303 435Q229 435 184 388T139 255Q139 169 184 122T303 75Q349 75 389 95Z" />
<glyph unicode="r" glyph-name="r" horiz-adv-x="383" d="M105 -5T92 8T79 40V469Q79 488 92 501T124 515Q143 515 156 502T170 469V426Q240 520 327 520H332Q351 520 363 507T376 475Q376 456 363 444T330 432H325Q277 432 237 409T170 344V40Q170 21 157 8T124
-5Q105 -5 92 8Z" />
<glyph unicode="s" glyph-name="s" horiz-adv-x="480" d="M144 -10T62 35Q45 47 45 68Q45 84 56 96T84 108Q93 108 102 104Q134 90 166 82T238 74Q349 74 349 145Q349 168 324 180T240 207Q181 221 143 236T77 281T49 362Q49 432 99 476T244 520Q321 520 389 495Q403
491 410 480T418 457Q418 441 407 429T378 417Q373 417 365 419Q307 437 251 437Q197 437 167 418T136 367Q136 337 164 323T251 296Q310 281 347 267T410 221T437 138Q437 74 387 32T244 -10Q144 -10 62 35Z" />
<glyph unicode="t" glyph-name="t" horiz-adv-x="382" d="M109 -10T109 122V432H38Q30 432 25 437T19 451Q19 461 28 468L164 601Q173 610 181 610Q189 610 194 604T200 590V510H313Q330 510 341 499T352 471Q352 455 341 444T313 432H200V130Q200 91 218 81T265
70Q285 70 305 76Q309 77 313 78T325 79Q339 79 350 69T361 43Q361 20 338 8Q299 -10 255 -10Q109 -10 109 122Z" />
<glyph unicode="u" glyph-name="u" horiz-adv-x="609" d="M198 -10T158 16T96 87T74 186V470Q74 489 87 502T120 515Q139 515 152 502T165 470V196Q165 74 275 74Q325 74 364 100T439 170V470Q439 489 452 502T485 515Q504 515 517 502T530 470V41Q530 22 517
9T485 -5Q466 -5 453 8T439 41V82Q401 40 357 15T253 -10Q198 -10 158 16Z" />
<glyph unicode="v" glyph-name="v" horiz-adv-x="530" d="M242 -5T227 5T205 32L31 448Q26 460 26 469Q26 488 39 501T71 515Q84 515 95 508T112 489L265 101L418 489Q423 500 434 507T459 515Q478 515 491 502T504 469Q504 460 499 448L325 32Q318 16 303 6T270
-5H260Q242 -5 227 5Z" />
<glyph unicode="w" glyph-name="w" horiz-adv-x="792" d="M211 -5T195 7T173 37L31 453Q28 462 28 470Q28 489 41 502T73 515Q87 515 98 508T114 488L231 103L347 479Q352 495 365 505T396 515Q413 515 426 505T445 479L561 103L678 488Q682 500 693 507T719 515Q738
515 751 502T764 470Q764 462 761 453L619 37Q613 19 597 7T561 -5Q541 -5 525 7T502 38L396 369L290 38Q283 19 267 7T231 -5Q211 -5 195 7Z" />
<glyph unicode="x" glyph-name="x" horiz-adv-x="541" d="M74 -5T63 7T51 41Q51 56 61 69L216 252L61 441Q50 455 50 470Q50 490 63 502T95 515Q119 515 131 498L271 325L410 498Q422 515 445 515Q465 515 478 503T491 472Q491 457 481 444L323 258L479 70Q490
58 490 41Q490 22 478 9T444 -5Q422 -5 409 13L267 183L133 15Q118 -5 94 -5Q74 -5 63 7Z" />
<glyph unicode="y" glyph-name="y" horiz-adv-x="537" d="M175 -235T163 -222T150 -191Q150 -183 153 -175L218 -8L30 450Q26 460 26 469Q26 488 39 501T71 515Q85 515 96 507T113 487L267 105L424 485Q437 515 466 515Q485 515 498 502T511 469Q511 460 508 452L235
-204Q221 -235 193 -235Q175 -235 163 -222Z" />
<glyph unicode="z" glyph-name="z" horiz-adv-x="498" d="M76 0T58 14T40 53Q40 76 56 94L344 425H91Q73 425 61 437T49 467Q49 485 61 497T91 510H394Q420 510 436 494T452 453Q452 430 438 413L158 85H415Q433 85 445 73T458 42Q458 24 446 12T415 0H103Q76 0 58 14Z" />
<glyph unicode="{" glyph-name="braceleft" horiz-adv-x="344" d="M202 -145T166 -119T129 -25V186Q129 207 124 221T99 247T37 267Q20 270 12 280T3 307Q3 323 11 333T37 347Q79 354 99 366T124 393T129 428V639Q129 707 165 733T269 759H281Q295 759 305 749T316
724Q316 710 306 700T281 689H266Q228 689 218 677T207 647V425Q207 340 117 307Q207 274 207 189V-33Q207 -51 217 -63T266 -75H281Q295 -75 305 -85T316 -110Q316 -124 306 -134T281 -145H269Q202 -145 166 -119Z" />
<glyph unicode="|" glyph-name="bar" horiz-adv-x="253" d="M109 -196T98 -185T86 -156V700Q86 717 97 729T126 741Q143 741 155 729T167 700V-156Q167 -173 155 -184T126 -196Q109 -196 98 -185Z" />
<glyph unicode="}" glyph-name="braceright" horiz-adv-x="344" d="M49 -145T39 -135T28 -110Q28 -96 38 -86T63 -75H78Q116 -75 126 -63T137 -33V189Q137 274 227 307Q137 340 137 425V647Q137 665 127 677T78 689H63Q49 689 39 699T28 724Q28 738 38 748T63
759H75Q142 759 178 733T215 639V428Q215 407 220 393T245 367T307 347Q324 344 332 334T341 307Q341 291 333 281T307 267Q265 260 245 248T220 221T215 186V-25Q215 -93 179 -119T75 -145H63Q49 -145 39 -135Z" />
<glyph unicode="~" glyph-name="asciitilde" horiz-adv-x="638" d="M402 206T371 217T294 249Q259 266 238 274T194 282Q139 282 124 228Q122 220 116 215T100 209Q90 209 82 217T74 235Q74 266 91 297T138 347T201 367Q240 367 271 356T348 324Q383 307 404 299T448
291Q476 291 487 300T510 332Q513 340 519 351Q527 366 543 366Q554 366 562 358T567 335Q555 272 521 239T440 206Q402 206 371 217Z" />
<glyph unicode="&#xa0;" glyph-name="uni00A0" horiz-adv-x="260" />
<glyph unicode="&#xa1;" glyph-name="exclamdown" horiz-adv-x="259" d="M106 395T89 412T71 454Q71 479 88 496T130 514Q155 514 172 497T190 454Q190 430 173 413T130 395Q106 395 89 412ZM108 -193T93 -178T78 -141V-42L96 288Q97 301 106 309T130 317Q145
317 153 309T163 288L181 -42V-141Q181 -163 167 -178T130 -193Q108 -193 93 -178Z" />
<glyph unicode="&#xa2;" glyph-name="cent" horiz-adv-x="551" d="M171 -123T163 -115T155 -95Q155 -88 158 -82L191 15Q124 45 84 107T44 255Q44 336 80 396T178 488T311 520Q331 520 363 516L392 601Q395 609 402 614T419 620Q431 620 439 612T447 591Q447 587
445 581L418 501Q446 491 474 472Q494 459 494 437Q494 422 483 410T456 397Q445 397 434 403L391 423L273 79Q292 75 319 75Q354 75 377 82T434 107Q445 113 456 113Q471 113 482 101T494 73Q494 51 474 38Q441 17 403 4T311 -10Q279 -10 245 -2L210 -105Q207
-114 200 -118T183 -123Q171 -123 163 -115ZM335 434Q330 435 319 435Q233 435 184 386T135 255Q135 201 157 161T220 98L335 434Z" />
<glyph unicode="&#xa3;" glyph-name="sterling" horiz-adv-x="604" d="M541 93T553 82T565 53Q565 30 542 17Q493 -10 436 -10Q408 -10 388 -5T337 12Q309 23 288 29T237 35Q179 35 129 1Q118 -7 106 -7Q91 -7 80 3T69 28Q69 47 83 59Q121 95 148 147T175 255Q175
274 172 292H75Q60 292 50 302T39 328Q39 343 49 354T75 365H154Q139 411 132 439T125 502Q125 598 191 653T368 708Q442 708 512 679Q542 667 542 639Q542 621 530 609T500 597Q493 597 481 601Q422 620 372 620Q287 620 252 587T216 506Q216 481 222 454T240
389L247 365H414Q429 365 440 354T451 328Q451 312 441 302T414 292H263Q265 272 265 261Q265 184 223 118L248 119Q274 119 294 114T351 98Q379 88 400 83T445 78Q477 78 508 89Q520 93 524 93Q541 93 553 82Z" />
<glyph unicode="&#xa4;" glyph-name="currency" horiz-adv-x="668" d="M87 81T77 92T66 118Q66 133 77 144L142 209Q97 273 97 349Q97 425 142 489L77 554Q66 565 66 580Q66 595 76 606T103 617Q116 617 129 606L195 541Q258 586 334 586Q410 586 473 541L539
606Q552 617 565 617Q581 617 591 606T602 580Q602 565 591 554L526 489Q571 425 571 349Q571 273 526 209L591 144Q602 133 602 118Q602 103 592 92T565 81Q552 81 539 92L473 157Q410 112 334 112Q258 112 195 157L129 92Q116 81 103 81Q87 81 77 92ZM376 193T412
214T469 271T490 349Q490 391 469 427T412 484T334 505Q292 505 256 484T199 427T178 349Q178 307 199 271T256 214T334 193Q376 193 412 214Z" />
<glyph unicode="&#xa5;" glyph-name="yen" horiz-adv-x="658" d="M311 -6T298 7T284 39V151H143Q127 151 117 161T106 188Q106 204 116 215T143 226H284V290H143Q127 290 117 300T106 327Q106 343 116 354T143 365H241L73 639Q65 652 65 665Q65 686 79 699T113
712Q140 712 156 684L329 381L502 684Q518 712 545 712Q565 712 579 699T593 665Q593 652 585 639L417 365H515Q531 365 541 354T552 327Q552 311 542 301T515 290H374V226H515Q531 226 541 215T552 188Q552 172 542 162T515 151H374V39Q374 20 361 7T329 -6Q311
-6 298 7Z" />
<glyph unicode="&#xa6;" glyph-name="brokenbar" horiz-adv-x="253" d="M109 364T98 375T86 404V700Q86 717 97 729T126 741Q143 741 155 729T167 700V404Q167 387 155 376T126 364Q109 364 98 375ZM109 -196T98 -185T86 -156V140Q86 157 97 169T126 181Q143 181
155 169T167 140V-156Q167 -173 155 -184T126 -196Q109 -196 98 -185Z" />
<glyph unicode="&#xa7;" glyph-name="section" horiz-adv-x="529" d="M134 -103T63 -58Q56 -54 52 -45T47 -25Q47 -8 58 3T86 15Q95 15 107 9Q163 -19 246 -19Q359 -19 359 51Q359 79 331 96T243 137Q185 159 148 178T84 230T57 313Q57 406 155 439Q91 486 91
560Q91 624 141 666T284 708Q368 708 434 681Q446 676 453 666T461 642Q461 626 449 614T420 602Q413 602 405 605Q354 624 290 624Q177 624 177 554Q177 526 205 509T293 468Q352 445 389 426T452 374T479 292Q479 197 380 165Q445 121 445 45Q445 -19 395 -61T252
-103Q134 -103 63 -58ZM395 216T395 286Q395 311 379 328T337 357T268 386Q258 390 245 395T215 407Q141 389 141 319Q141 294 157 277T198 248T267 219L320 198Q395 216 395 286Z" />
<glyph unicode="&#xa8;" glyph-name="dieresis" horiz-adv-x="400" d="M95 575T80 590T65 626Q65 647 80 662T116 677Q137 677 152 662T167 626Q167 605 152 590T116 575Q95 575 80 590ZM263 575T248 590T233 626Q233 647 248 662T284 677Q305 677 320 662T335
626Q335 605 320 590T284 575Q263 575 248 590Z" />
<glyph unicode="&#xa9;" glyph-name="copyright" horiz-adv-x="819" d="M313 -9T231 39T100 170T51 349Q51 446 99 528T230 658T410 707Q507 707 589 659T720 528T769 349Q769 252 721 170T590 40T410 -9Q313 -9 231 39ZM493 43T563 84T675 196T717 349Q717 432
676 502T564 613T409 655Q326 655 256 614T145 502T103 349Q103 266 144 196T256 85T409 43Q493 43 563 84ZM359 146T316 171T248 242T223 349Q223 410 247 456T315 527T416 552Q474 552 517 525T585 447Q588 441 588 434Q588 421 579 412T556 402Q537 402 525
424Q487 491 416 491Q356 491 323 450T290 349Q290 289 323 248T416 207Q487 207 525 274Q537 296 556 296Q570 296 579 287T588 264Q588 257 585 251Q560 201 517 174T416 146Q359 146 316 171Z" />
<glyph unicode="&#xaa;" glyph-name="ordfeminine" horiz-adv-x="485" d="M149 339T115 368T81 446Q81 497 121 525T242 553H318V555Q318 600 297 620T233 640Q186 640 142 624Q136 622 132 622Q119 622 110 631T100 654Q100 664 106 672T123 684Q186 708 244
708Q316 708 353 667T390 569V378Q390 363 380 353T354 342Q339 342 329 352T318 378V387Q300 366 270 353T197 339Q149 339 115 368ZM248 404T273 417T318 451V499H250Q203 499 178 488T153 452Q153 404 220 404Q248 404 273 417ZM83 229T75 237T66 257Q66 268
74 276T94 285H377Q388 285 396 277T405 257Q405 246 397 238T377 229H94Q83 229 75 237Z" />
<glyph unicode="&#xab;" glyph-name="guillemotleft" horiz-adv-x="585" d="M245 20T236 31L72 212Q54 232 54 255Q54 278 72 298L236 479Q245 490 264 490Q281 490 292 479T303 451Q303 436 294 425L134 255L294 85Q303 75 303 59Q303 42 292 31T264 20Q245 20
236 31ZM453 20T444 31L280 212Q262 232 262 255Q262 278 280 298L444 479Q453 490 472 490Q489 490 500 479T511 451Q511 436 502 425L342 255L502 85Q511 75 511 59Q511 42 500 31T472 20Q453 20 444 31Z" />
<glyph unicode="&#xac;" glyph-name="logicalnot" horiz-adv-x="579" d="M442 168T432 178T421 205V311H109Q94 311 84 321T73 347Q73 362 83 372T109 383H454Q471 383 483 371T496 341V205Q496 189 485 179T458 168Q442 168 432 178Z" />
<glyph unicode="&#xad;" glyph-name="uni00AD" horiz-adv-x="408" d="M92 240T81 251T69 280Q69 297 80 309T109 321H298Q315 321 327 309T339 280Q339 263 327 252T298 240H109Q92 240 81 251Z" />
<glyph unicode="&#xae;" glyph-name="registered" horiz-adv-x="819" d="M313 -10T231 38T100 169T51 349Q51 446 99 528T230 659T410 708Q507 708 589 660T720 529T769 349Q769 252 721 170T590 39T410 -10Q313 -10 231 38ZM493 42T563 83T675 195T717 350Q717
433 676 503T564 614T409 656Q326 656 256 615T145 503T103 350Q103 266 144 196T256 84T409 42Q493 42 563 83ZM280 145T271 154T261 178V502Q261 521 274 534T306 548H426Q505 548 544 515T583 428Q583 392 562 368T509 331Q537 321 557 291T578 206V179Q578
165 568 155T544 145Q530 145 520 155T510 179V197Q510 240 498 269T437 299H328V178Q328 164 318 155T294 145Q280 145 271 154ZM423 358Q466 358 491 375T517 426Q517 457 495 473T421 490H328V358H423Z" />
<glyph unicode="&#xaf;" glyph-name="overscore" horiz-adv-x="312" d="M70 588T62 596T53 618Q53 631 61 639T83 648H317Q330 648 338 640T347 618Q347 605 339 597T317 588H83Q70 588 62 596Z" />
<glyph unicode="&#xb0;" glyph-name="degree" horiz-adv-x="378" d="M152 434T121 452T71 502T52 571Q52 608 70 639T120 689T189 708Q226 708 257 690T307 640T326 571Q326 534 308 503T258 453T189 434Q152 434 121 452ZM224 486T249 511T274 571Q274 606 249
631T189 656Q154 656 129 631T104 571Q104 536 129 511T189 486Q224 486 249 511Z" />
<glyph unicode="&#xb1;" glyph-name="plusminus" horiz-adv-x="606" d="M287 145T276 156T264 184V342H100Q84 342 73 353T62 380Q62 397 73 408T100 419H264V577Q264 594 275 605T303 616Q320 616 331 605T342 577V419H505Q522 419 533 408T544 380Q544 364 533
353T505 342H342V184Q342 168 331 157T303 145Q287 145 276 156ZM84 0T73 11T62 38Q62 55 73 66T100 77H505Q522 77 533 66T544 38Q544 22 533 11T505 0H100Q84 0 73 11Z" />
<glyph unicode="&#xb2;" glyph-name="uni00B2" horiz-adv-x="370" d="M60 310T49 322T38 350Q38 391 70 421T163 490Q213 522 236 542T260 588Q260 615 241 631T182 648Q127 648 87 626Q81 623 74 623Q62 623 54 630T46 651Q46 668 60 676Q115 709 190 709Q248
709 285 676T323 592Q323 558 303 529T254 478T182 427Q151 407 134 394T107 369H297Q310 369 318 361T327 339Q327 326 319 318T297 310H77Q60 310 49 322Z" />
<glyph unicode="&#xb3;" glyph-name="uni00B3" horiz-adv-x="370" d="M98 304T53 329Q46 333 41 340T36 356Q36 368 45 376T65 385Q68 385 76 383Q103 375 122 371T167 366Q209 366 234 379T259 418Q259 480 147 480H136Q123 480 115 488T106 510Q106 523 114
531T136 540H141Q188 540 217 553T246 598Q246 625 223 636T168 648Q122 648 82 629Q76 626 69 626Q58 626 50 633T41 653Q41 669 60 679Q116 709 172 709Q241 709 274 680T308 603Q308 567 290 545T246 513Q278 503 300 480T322 416Q322 368 287 336T176 304Q98
304 53 329Z" />
<glyph unicode="&#xb4;" glyph-name="acute" horiz-adv-x="240" d="M188 567T181 574T173 594Q173 603 180 613L231 703Q241 722 264 722Q280 722 290 712T301 685Q301 671 291 660L222 578Q213 567 200 567Q188 567 181 574Z" />
<glyph unicode="&#xb5;" glyph-name="uni00B5" horiz-adv-x="604" d="M110 -218T97 -205T84 -173V470Q84 489 97 502T130 515Q149 515 162 502T175 470V196Q175 74 285 74Q335 74 374 100T449 170V470Q449 489 462 502T495 515Q514 515 527 502T540 470V41Q540
22 527 9T495 -5Q476 -5 463 8T449 41V82Q409 39 369 15T268 -10Q215 -10 175 17V-173Q175 -192 162 -205T129 -218Q110 -218 97 -205Z" />
<glyph unicode="&#xb6;" glyph-name="paragraph" horiz-adv-x="732" d="M355 -224T344 -213T332 -184V184H296Q226 184 167 218T74 312T39 441Q39 511 73 570T167 663T296 698H648Q665 698 676 687T688 658Q688 642 677 631T648 619H602V-184Q602 -201 591 -212T562
-224Q546 -224 535 -213T523 -184V619H411V-184Q411 -201 400 -212T371 -224Q355 -224 344 -213Z" />
<glyph unicode="&#xb7;" glyph-name="middot" horiz-adv-x="260" d="M102 226T86 242T69 282V288Q69 311 85 327T125 344H135Q158 344 174 328T191 288V282Q191 259 175 243T135 226H125Q102 226 86 242Z" />
<glyph unicode="&#xb8;" glyph-name="cedilla" horiz-adv-x="307" d="M139 -221T97 -195Q93 -192 90 -188T86 -178Q86 -170 91 -164T105 -158Q109 -158 115 -161Q146 -178 174 -178Q231 -178 231 -132Q231 -117 221 -109T195 -101Q173 -101 151 -112Q145 -115
141 -115Q134 -115 129 -111T123 -99Q123 -91 127 -85L191 17H233L187 -63Q203 -59 221 -59Q255 -59 276 -78T298 -129Q298 -175 270 -198T187 -221Q139 -221 97 -195Z" />
<glyph unicode="&#xb9;" glyph-name="uni00B9" horiz-adv-x="370" d="M95 310T87 318T79 339Q79 352 87 360T108 369H168V634L123 612Q113 608 108 608Q96 608 87 616T78 638Q78 646 83 654T97 666L169 703Q179 708 189 708Q208 708 220 696T232 665V369H282Q295
369 303 361T312 339Q312 326 304 318T282 310H108Q95 310 87 318Z" />
<glyph unicode="&#xba;" glyph-name="ordmasculine" horiz-adv-x="514" d="M176 339T128 390T79 524Q79 607 127 657T257 708Q338 708 386 658T435 524Q435 441 387 390T257 339Q176 339 128 390ZM299 403T331 433T363 525Q363 585 331 615T257 645Q215 645 183
615T151 525Q151 464 183 434T257 403Q299 403 331 433ZM87 229T79 237T70 257Q70 268 78 276T98 285H416Q427 285 435 277T444 257Q444 246 436 238T416 229H98Q87 229 79 237Z" />
<glyph unicode="&#xbb;" glyph-name="guillemotright" horiz-adv-x="585" d="M96 20T85 31T74 59Q74 75 83 85L243 255L83 425Q74 436 74 451Q74 468 85 479T113 490Q132 490 141 479L305 298Q323 278 323 255Q323 232 305 212L141 31Q132 20 113 20Q96 20 85
31ZM304 20T293 31T282 59Q282 75 291 85L451 255L291 425Q282 436 282 451Q282 468 293 479T321 490Q340 490 349 479L513 298Q531 278 531 255Q531 232 513 212L349 31Q340 20 321 20Q304 20 293 31Z" />
<glyph unicode="&#xbc;" glyph-name="onequarter" horiz-adv-x="891" d="M95 310T87 318T79 339Q79 352 87 360T108 369H168V634L123 612Q113 608 108 608Q96 608 87 616T78 638Q78 646 83 654T97 666L169 703Q179 708 189 708Q208 708 220 696T232 665V369H282Q295
369 303 361T312 339Q312 326 304 318T282 310H108Q95 310 87 318ZM245 -24T235 -15T225 10Q225 18 230 28L644 710Q652 724 672 724Q686 724 696 715T706 690Q706 682 701 672L287 -10Q279 -24 259 -24Q245 -24 235 -15ZM756 -5T747 4T737 27V96H581Q564 96 552
108T539 138Q539 153 550 167L715 378Q732 399 751 399H759Q777 399 789 387T801 357V155H837Q850 155 858 147T867 125Q867 112 859 104T837 96H801V27Q801 14 792 5T769 -5Q756 -5 747 4ZM610 155H737V320L610 155Z" />
<glyph unicode="&#xbd;" glyph-name="onehalf" horiz-adv-x="931" d="M95 310T87 318T79 339Q79 352 87 360T108 369H168V634L123 612Q113 608 108 608Q96 608 87 616T78 638Q78 646 83 654T97 666L169 703Q179 708 189 708Q208 708 220 696T232 665V369H282Q295
369 303 361T312 339Q312 326 304 318T282 310H108Q95 310 87 318ZM245 -24T235 -15T225 10Q225 18 230 28L644 710Q652 724 672 724Q686 724 696 715T706 690Q706 682 701 672L287 -10Q279 -24 259 -24Q245 -24 235 -15ZM621 0T610 12T599 40Q599 81 631 111T724
180Q774 212 797 232T821 278Q821 305 802 321T743 338Q688 338 648 316Q642 313 635 313Q623 313 615 320T607 341Q607 358 621 366Q676 399 751 399Q809 399 846 366T884 282Q884 248 864 219T815 168T743 117Q712 97 695 84T668 59H858Q871 59 879 51T888 29Q888
16 880 8T858 0H638Q621 0 610 12Z" />
<glyph unicode="&#xbe;" glyph-name="threequarters" horiz-adv-x="891" d="M98 304T53 329Q46 333 41 340T36 356Q36 368 45 376T65 385Q68 385 76 383Q103 375 122 371T167 366Q209 366 234 379T259 418Q259 480 147 480H136Q123 480 115 488T106 510Q106 523
114 531T136 540H141Q188 540 217 553T246 598Q246 625 223 636T168 648Q122 648 82 629Q76 626 69 626Q58 626 50 633T41 653Q41 669 60 679Q116 709 172 709Q241 709 274 680T308 603Q308 567 290 545T246 513Q278 503 300 480T322 416Q322 368 287 336T176 304Q98
304 53 329ZM245 -24T235 -15T225 10Q225 18 230 28L644 710Q652 724 672 724Q686 724 696 715T706 690Q706 682 701 672L287 -10Q279 -24 259 -24Q245 -24 235 -15ZM756 -5T747 4T737 27V96H581Q564 96 552 108T539 138Q539 153 550 167L715 378Q732 399 751 399H759Q777
399 789 387T801 357V155H837Q850 155 858 147T867 125Q867 112 859 104T837 96H801V27Q801 14 792 5T769 -5Q756 -5 747 4ZM610 155H737V320L610 155Z" />
<glyph unicode="&#xbf;" glyph-name="questiondown" horiz-adv-x="488" d="M248 395T231 412T213 454Q213 479 230 496T273 514Q297 514 314 497T332 454Q332 430 315 413T273 395Q248 395 231 412ZM163 -198T102 -147T40 -9Q40 30 54 59T88 109T141 156Q184 190
205 217T227 285Q227 301 240 312T271 324Q290 324 302 313T315 285Q315 240 299 206T262 150T204 98Q166 68 148 46T130 -4Q130 -113 273 -113Q308 -113 341 -105T401 -80Q413 -72 426 -72Q443 -72 454 -84T466 -112Q466 -135 441 -150Q400 -176 358 -187T265
-198Q163 -198 102 -147Z" />
<glyph unicode="&#xc0;" glyph-name="Agrave" horiz-adv-x="746" d="M75 -5T63 8T50 40Q50 48 55 60L310 662Q318 680 332 691T368 703H378Q399 703 413 692T436 662L691 60Q696 48 696 40Q696 21 684 8T651 -5Q637 -5 626 2T608 23L543 179H203L138 23Q132 10
121 3T95 -5Q75 -5 63 8ZM238 262H508L373 587L238 262ZM360 739T351 750L282 832Q272 843 272 857Q272 874 282 884T309 894Q332 894 342 875L393 785Q400 775 400 766Q400 754 393 747T373 739Q360 739 351 750Z" />
<glyph unicode="&#xc1;" glyph-name="Aacute" horiz-adv-x="746" d="M75 -5T63 8T50 40Q50 48 55 60L310 662Q318 680 332 691T368 703H378Q399 703 413 692T436 662L691 60Q696 48 696 40Q696 21 684 8T651 -5Q637 -5 626 2T608 23L543 179H203L138 23Q132 10
121 3T95 -5Q75 -5 63 8ZM238 262H508L373 587L238 262ZM361 739T354 746T346 766Q346 775 353 785L404 875Q414 894 437 894Q453 894 463 884T474 857Q474 843 464 832L395 750Q386 739 373 739Q361 739 354 746Z" />
<glyph unicode="&#xc2;" glyph-name="Acircumflex" horiz-adv-x="746" d="M75 -5T63 8T50 40Q50 48 55 60L310 662Q318 680 332 691T368 703H378Q399 703 413 692T436 662L691 60Q696 48 696 40Q696 21 684 8T651 -5Q637 -5 626 2T608 23L543 179H203L138 23Q132
10 121 3T95 -5Q75 -5 63 8ZM238 262H508L373 587L238 262ZM255 738T246 747T238 768Q238 779 246 787L314 857Q323 867 332 872T354 877H392Q405 877 414 872T432 857L500 787Q508 779 508 768Q509 757 500 748T478 738Q467 738 460 745L373 819L286 745Q279 738
268 738Q255 738 246 747Z" />
<glyph unicode="&#xc3;" glyph-name="Atilde" horiz-adv-x="746" d="M75 -5T63 8T50 40Q50 48 55 60L310 662Q318 680 332 691T368 703H378Q399 703 413 692T436 662L691 60Q696 48 696 40Q696 21 684 8T651 -5Q637 -5 626 2T608 23L543 179H203L138 23Q132 10
121 3T95 -5Q75 -5 63 8ZM238 262H508L373 587L238 262ZM226 743T219 749T212 766Q212 787 222 809T252 846T296 861Q316 861 333 855T376 837Q399 826 415 820T450 814Q465 814 473 821T487 841Q495 862 512 862Q522 862 528 856T535 840Q535 805 511 775T451
745Q431 745 413 751T369 770Q346 781 330 787T297 793Q271 793 258 761Q252 743 235 743Q226 743 219 749Z" />
<glyph unicode="&#xc4;" glyph-name="Adieresis" horiz-adv-x="746" d="M75 -5T63 8T50 40Q50 48 55 60L310 662Q318 680 332 691T368 703H378Q399 703 413 692T436 662L691 60Q696 48 696 40Q696 21 684 8T651 -5Q637 -5 626 2T608 23L543 179H203L138 23Q132
10 121 3T95 -5Q75 -5 63 8ZM238 262H508L373 587L238 262ZM268 747T253 762T238 798Q238 819 253 834T289 849Q310 849 325 834T340 798Q340 777 325 762T289 747Q268 747 253 762ZM436 747T421 762T406 798Q406 819 421 834T457 849Q478 849 493 834T508 798Q508
777 493 762T457 747Q436 747 421 762Z" />
<glyph unicode="&#xc5;" glyph-name="Aring" horiz-adv-x="746" d="M75 -5T63 8T50 40Q50 48 55 60L310 662Q318 680 332 691T368 703H378Q399 703 413 692T436 662L691 60Q696 48 696 40Q696 21 684 8T651 -5Q637 -5 626 2T608 23L543 179H203L138 23Q132 10
121 3T95 -5Q75 -5 63 8ZM238 262H508L373 587L238 262ZM334 723T307 750T279 817Q279 856 306 883T373 911Q412 911 439 884T467 817Q467 778 440 751T373 723Q334 723 307 750ZM393 768T407 782T422 817Q422 837 408 851T373 866Q353 866 339 852T324 817Q324
797 338 783T373 768Q393 768 407 782Z" />
<glyph unicode="&#xc6;" glyph-name="AE" horiz-adv-x="1040" d="M29 -5T16 8T2 40Q2 53 12 68L411 673Q419 684 431 691T457 698H945Q963 698 975 686T988 655Q988 637 976 625T945 613H590V392H909Q927 392 939 380T952 349Q952 331 940 319T909 307H590V85H945Q963
85 975 73T988 42Q988 24 976 12T945 0H544Q525 0 512 13T499 45V179H191L89 21Q72 -5 48 -5Q29 -5 16 8ZM245 262H499V613H474L245 262Z" />
<glyph unicode="&#xc7;" glyph-name="Ccedilla" horiz-adv-x="695" d="M633 128T644 117T655 90Q655 64 633 52Q582 23 530 7T413 -10L382 -63Q398 -59 416 -59Q450 -59 471 -78T493 -129Q493 -175 465 -198T382 -221Q334 -221 292 -195Q288 -192 285 -188T281
-178Q281 -170 286 -164T300 -158Q304 -158 310 -161Q341 -178 369 -178Q426 -178 426 -132Q426 -117 416 -109T390 -101Q368 -101 346 -112Q340 -115 336 -115Q329 -115 324 -111T318 -99Q318 -91 322 -85L370 -9Q279 -1 208 44T96 168T55 349Q55 458 100 539T225
664T405 708Q473 708 526 692T633 646Q655 634 655 608Q655 593 644 582T615 570Q605 570 597 574Q553 597 511 609T414 621Q328 621 268 586T177 489T146 349Q146 271 176 210T267 113T414 77Q469 77 511 89T597 124Q605 128 615 128Q633 128 644 117Z" />
<glyph unicode="&#xc8;" glyph-name="Egrave" horiz-adv-x="638" d="M123 0T110 13T97 45V652Q97 671 110 684T142 698H543Q561 698 573 686T586 655Q586 637 574 625T543 613H188V392H507Q525 392 537 380T550 349Q550 331 538 319T507 307H188V85H543Q561 85
573 73T586 42Q586 24 574 12T543 0H142Q123 0 110 13ZM329 739T320 750L251 832Q241 843 241 857Q241 874 251 884T278 894Q301 894 311 875L362 785Q369 775 369 766Q369 754 362 747T342 739Q329 739 320 750Z" />
<glyph unicode="&#xc9;" glyph-name="Eacute" horiz-adv-x="638" d="M123 0T110 13T97 45V652Q97 671 110 684T142 698H543Q561 698 573 686T586 655Q586 637 574 625T543 613H188V392H507Q525 392 537 380T550 349Q550 331 538 319T507 307H188V85H543Q561 85
573 73T586 42Q586 24 574 12T543 0H142Q123 0 110 13ZM330 739T323 746T315 766Q315 775 322 785L373 875Q383 894 406 894Q422 894 432 884T443 857Q443 843 433 832L364 750Q355 739 342 739Q330 739 323 746Z" />
<glyph unicode="&#xca;" glyph-name="Ecircumflex" horiz-adv-x="638" d="M123 0T110 13T97 45V652Q97 671 110 684T142 698H543Q561 698 573 686T586 655Q586 637 574 625T543 613H188V392H507Q525 392 537 380T550 349Q550 331 538 319T507 307H188V85H543Q561
85 573 73T586 42Q586 24 574 12T543 0H142Q123 0 110 13ZM224 738T215 747T207 768Q207 779 215 787L283 857Q292 867 301 872T323 877H361Q374 877 383 872T401 857L469 787Q477 779 477 768Q478 757 469 748T447 738Q436 738 429 745L342 819L255 745Q248 738
237 738Q224 738 215 747Z" />
<glyph unicode="&#xcb;" glyph-name="Edieresis" horiz-adv-x="638" d="M123 0T110 13T97 45V652Q97 671 110 684T142 698H543Q561 698 573 686T586 655Q586 637 574 625T543 613H188V392H507Q525 392 537 380T550 349Q550 331 538 319T507 307H188V85H543Q561
85 573 73T586 42Q586 24 574 12T543 0H142Q123 0 110 13ZM237 747T222 762T207 798Q207 819 222 834T258 849Q279 849 294 834T309 798Q309 777 294 762T258 747Q237 747 222 762ZM405 747T390 762T375 798Q375 819 390 834T426 849Q447 849 462 834T477 798Q477
777 462 762T426 747Q405 747 390 762Z" />
<glyph unicode="&#xcc;" glyph-name="Igrave" horiz-adv-x="285" d="M123 -5T110 8T97 40V657Q97 676 110 689T142 703Q161 703 174 690T188 657V40Q188 21 175 8T142 -5Q123 -5 110 8ZM130 739T121 750L52 832Q42 843 42 857Q42 874 52 884T79 894Q102 894 112
875L163 785Q170 775 170 766Q170 754 163 747T143 739Q130 739 121 750Z" />
<glyph unicode="&#xcd;" glyph-name="Iacute" horiz-adv-x="285" d="M123 -5T110 8T97 40V657Q97 676 110 689T142 703Q161 703 174 690T188 657V40Q188 21 175 8T142 -5Q123 -5 110 8ZM131 739T124 746T116 766Q116 775 123 785L174 875Q184 894 207 894Q223
894 233 884T244 857Q244 843 234 832L165 750Q156 739 143 739Q131 739 124 746Z" />
<glyph unicode="&#xce;" glyph-name="Icircumflex" horiz-adv-x="285" d="M123 -5T110 8T97 40V657Q97 676 110 689T142 703Q161 703 174 690T188 657V40Q188 21 175 8T142 -5Q123 -5 110 8ZM25 738T16 747T8 768Q8 779 16 787L84 857Q93 867 102 872T124 877H162Q175
877 184 872T202 857L270 787Q278 779 278 768Q279 757 270 748T248 738Q237 738 230 745L143 819L56 745Q49 738 38 738Q25 738 16 747Z" />
<glyph unicode="&#xcf;" glyph-name="Idieresis" horiz-adv-x="285" d="M123 -5T110 8T97 40V657Q97 676 110 689T142 703Q161 703 174 690T188 657V40Q188 21 175 8T142 -5Q123 -5 110 8ZM38 747T23 762T8 798Q8 819 23 834T59 849Q80 849 95 834T110 798Q110
777 95 762T59 747Q38 747 23 762ZM206 747T191 762T176 798Q176 819 191 834T227 849Q248 849 263 834T278 798Q278 777 263 762T227 747Q206 747 191 762Z" />
<glyph unicode="&#xd0;" glyph-name="Eth" horiz-adv-x="756" d="M128 0T115 13T102 45V315H48Q34 315 25 324T15 348Q15 362 24 372T48 382H102V652Q102 671 115 684T147 698H348Q462 698 541 648T661 517T701 349Q701 261 661 181T542 51T348 0H147Q128 0 115
13ZM337 85Q419 85 481 118T577 211T611 349Q611 427 577 486T481 579T337 613H193V382H310Q324 382 334 372T344 348Q344 334 334 325T310 315H193V85H337Z" />
<glyph unicode="&#xd1;" glyph-name="Ntilde" horiz-adv-x="803" d="M123 -5T110 8T97 40V637Q97 664 116 683T162 703H175Q207 703 230 673L615 117V657Q615 676 628 689T660 703Q679 703 692 690T706 657V60Q706 33 687 14T640 -5H628Q612 -5 598 2T575 22L188
581V40Q188 21 175 8T142 -5Q123 -5 110 8ZM255 743T248 749T241 766Q241 787 251 809T281 846T325 861Q345 861 362 855T405 837Q428 826 444 820T479 814Q494 814 502 821T516 841Q524 862 541 862Q551 862 557 856T564 840Q564 805 540 775T480 745Q460 745
442 751T398 770Q375 781 359 787T326 793Q300 793 287 761Q281 743 264 743Q255 743 248 749Z" />
<glyph unicode="&#xd2;" glyph-name="Ograve" horiz-adv-x="812" d="M301 -10T222 36T100 163T55 349Q57 454 100 535T222 662T406 708Q511 708 589 662T711 535T757 349Q755 245 712 164T590 36T406 -10Q301 -10 222 36ZM486 75T545 111T635 209T666 349Q666
427 635 489T545 587T406 623Q325 623 267 587T177 489T146 349Q146 271 177 209T266 111T406 75Q486 75 545 111ZM393 739T384 750L315 832Q305 843 305 857Q305 874 315 884T342 894Q365 894 375 875L426 785Q433 775 433 766Q433 754 426 747T406 739Q393 739
384 750Z" />
<glyph unicode="&#xd3;" glyph-name="Oacute" horiz-adv-x="812" d="M301 -10T222 36T100 163T55 349Q57 454 100 535T222 662T406 708Q511 708 589 662T711 535T757 349Q755 245 712 164T590 36T406 -10Q301 -10 222 36ZM486 75T545 111T635 209T666 349Q666
427 635 489T545 587T406 623Q325 623 267 587T177 489T146 349Q146 271 177 209T266 111T406 75Q486 75 545 111ZM394 739T387 746T379 766Q379 775 386 785L437 875Q447 894 470 894Q486 894 496 884T507 857Q507 843 497 832L428 750Q419 739 406 739Q394 739
387 746Z" />
<glyph unicode="&#xd4;" glyph-name="Ocircumflex" horiz-adv-x="812" d="M301 -10T222 36T100 163T55 349Q57 454 100 535T222 662T406 708Q511 708 589 662T711 535T757 349Q755 245 712 164T590 36T406 -10Q301 -10 222 36ZM486 75T545 111T635 209T666 349Q666
427 635 489T545 587T406 623Q325 623 267 587T177 489T146 349Q146 271 177 209T266 111T406 75Q486 75 545 111ZM288 738T279 747T271 768Q271 779 279 787L347 857Q356 867 365 872T387 877H425Q438 877 447 872T465 857L533 787Q541 779 541 768Q542 757 533
748T511 738Q500 738 493 745L406 819L319 745Q312 738 301 738Q288 738 279 747Z" />
<glyph unicode="&#xd5;" glyph-name="Otilde" horiz-adv-x="812" d="M301 -10T222 36T100 163T55 349Q57 454 100 535T222 662T406 708Q511 708 589 662T711 535T757 349Q755 245 712 164T590 36T406 -10Q301 -10 222 36ZM486 75T545 111T635 209T666 349Q666
427 635 489T545 587T406 623Q325 623 267 587T177 489T146 349Q146 271 177 209T266 111T406 75Q486 75 545 111ZM259 743T252 749T245 766Q245 787 255 809T285 846T329 861Q349 861 366 855T409 837Q432 826 448 820T483 814Q498 814 506 821T520 841Q528 862
545 862Q555 862 561 856T568 840Q568 805 544 775T484 745Q464 745 446 751T402 770Q379 781 363 787T330 793Q304 793 291 761Q285 743 268 743Q259 743 252 749Z" />
<glyph unicode="&#xd6;" glyph-name="Odieresis" horiz-adv-x="812" d="M301 -10T222 36T100 163T55 349Q57 454 100 535T222 662T406 708Q511 708 589 662T711 535T757 349Q755 245 712 164T590 36T406 -10Q301 -10 222 36ZM486 75T545 111T635 209T666 349Q666
427 635 489T545 587T406 623Q325 623 267 587T177 489T146 349Q146 271 177 209T266 111T406 75Q486 75 545 111ZM301 747T286 762T271 798Q271 819 286 834T322 849Q343 849 358 834T373 798Q373 777 358 762T322 747Q301 747 286 762ZM469 747T454 762T439 798Q439
819 454 834T490 849Q511 849 526 834T541 798Q541 777 526 762T490 747Q469 747 454 762Z" />
<glyph unicode="&#xd7;" glyph-name="multiply" horiz-adv-x="563" d="M81 36T70 47T59 74Q59 89 71 101L228 258L71 415Q59 427 59 442Q59 457 70 468T97 480Q112 480 124 468L281 311L438 468Q450 480 465 480Q481 480 492 469T503 442Q503 427 491 415L334
258L491 101Q503 89 503 74Q503 59 492 48T465 36Q450 36 438 48L281 205L124 48Q112 36 97 36Q81 36 70 47Z" />
<glyph unicode="&#xd8;" glyph-name="Oslash" horiz-adv-x="812" d="M147 -30T140 -23T133 -6Q133 2 139 11L178 66Q120 114 88 187T55 349Q57 454 100 535T222 662T406 708Q512 708 594 659L634 717Q641 727 655 727Q666 727 673 720T680 703Q680 695 674 686L635
630Q692 582 723 510T757 349Q755 245 712 164T590 36T406 -10Q300 -10 219 37L179 -20Q172 -30 158 -30Q147 -30 140 -23ZM543 588Q483 623 406 623Q325 623 267 587T177 489T146 349Q146 284 167 230T229 139L543 588ZM486 75T545 111T635 209T666 349Q666 412
645 466T584 558L269 109Q328 75 406 75Q486 75 545 111Z" />
<glyph unicode="&#xd9;" glyph-name="Ugrave" horiz-adv-x="758" d="M308 -10T242 20T134 111T92 262V657Q92 676 105 689T137 703Q156 703 169 690T183 657V259Q183 199 210 157T283 94T379 73Q430 73 475 94T547 157T575 259V657Q575 676 588 689T620 703Q639
703 652 690T666 657V262Q666 173 624 112T516 20T379 -10Q308 -10 242 20ZM366 739T357 750L288 832Q278 843 278 857Q278 874 288 884T315 894Q338 894 348 875L399 785Q406 775 406 766Q406 754 399 747T379 739Q366 739 357 750Z" />
<glyph unicode="&#xda;" glyph-name="Uacute" horiz-adv-x="758" d="M308 -10T242 20T134 111T92 262V657Q92 676 105 689T137 703Q156 703 169 690T183 657V259Q183 199 210 157T283 94T379 73Q430 73 475 94T547 157T575 259V657Q575 676 588 689T620 703Q639
703 652 690T666 657V262Q666 173 624 112T516 20T379 -10Q308 -10 242 20ZM367 739T360 746T352 766Q352 775 359 785L410 875Q420 894 443 894Q459 894 469 884T480 857Q480 843 470 832L401 750Q392 739 379 739Q367 739 360 746Z" />
<glyph unicode="&#xdb;" glyph-name="Ucircumflex" horiz-adv-x="758" d="M308 -10T242 20T134 111T92 262V657Q92 676 105 689T137 703Q156 703 169 690T183 657V259Q183 199 210 157T283 94T379 73Q430 73 475 94T547 157T575 259V657Q575 676 588 689T620 703Q639
703 652 690T666 657V262Q666 173 624 112T516 20T379 -10Q308 -10 242 20ZM261 738T252 747T244 768Q244 779 252 787L320 857Q329 867 338 872T360 877H398Q411 877 420 872T438 857L506 787Q514 779 514 768Q515 757 506 748T484 738Q473 738 466 745L379 819L292
745Q285 738 274 738Q261 738 252 747Z" />
<glyph unicode="&#xdc;" glyph-name="Udieresis" horiz-adv-x="758" d="M308 -10T242 20T134 111T92 262V657Q92 676 105 689T137 703Q156 703 169 690T183 657V259Q183 199 210 157T283 94T379 73Q430 73 475 94T547 157T575 259V657Q575 676 588 689T620 703Q639
703 652 690T666 657V262Q666 173 624 112T516 20T379 -10Q308 -10 242 20ZM274 747T259 762T244 798Q244 819 259 834T295 849Q316 849 331 834T346 798Q346 777 331 762T295 747Q274 747 259 762ZM442 747T427 762T412 798Q412 819 427 834T463 849Q484 849 499
834T514 798Q514 777 499 762T463 747Q442 747 427 762Z" />
<glyph unicode="&#xdd;" glyph-name="Yacute" horiz-adv-x="639" d="M301 -5T288 8T274 40V295L35 630Q27 643 27 657Q27 676 39 689T71 703Q96 703 111 680L320 376L529 680Q544 703 569 703Q588 703 601 690T613 657Q613 643 605 630L365 295V40Q365 21 352
8T320 -5Q301 -5 288 8ZM308 739T301 746T293 766Q293 775 300 785L351 875Q361 894 384 894Q400 894 410 884T421 857Q421 843 411 832L342 750Q333 739 320 739Q308 739 301 746Z" />
<glyph unicode="&#xde;" glyph-name="Thorn" horiz-adv-x="672" d="M123 -5T110 8T97 40V657Q97 676 110 689T142 703Q161 703 174 690T188 657V586H370Q465 586 525 554T611 472T637 364Q637 306 611 256T525 174T370 142H188V40Q188 21 175 8T142 -5Q123 -5
110 8ZM361 228Q463 228 504 267T546 364Q546 422 505 461T361 500H188V228H361Z" />
<glyph unicode="&#xdf;" glyph-name="germandbls" horiz-adv-x="608" d="M311 -10T262 7Q230 18 230 45Q230 62 241 73T269 84Q277 84 284 81Q314 71 358 71Q398 71 435 97T472 185Q472 242 424 275T300 309Q282 309 272 319T262 346Q262 361 272 371T300 383Q361
390 397 422T433 502Q433 558 399 590T304 623Q246 623 208 590T170 475V41Q170 22 157 9T124 -4Q105 -4 92 9T79 41V486Q79 591 141 649T305 708Q359 708 409 687T492 621T524 512Q524 387 414 352Q474 338 518 296T563 174Q563 114 536 73T466 11T373 -10Q311
-10 262 7Z" />
<glyph unicode="&#xe0;" glyph-name="agrave" horiz-adv-x="562" d="M165 -10T128 8T68 60T46 140Q46 214 104 258T276 302H397V310Q397 376 365 405T263 434Q225 434 196 428T130 410Q122 408 117 408Q102 408 91 419T80 446Q80 473 106 484Q191 520 279 520Q348
520 395 492T465 420T488 323V40Q488 21 475 8T442 -5Q423 -5 410 8T397 40V66Q323 -10 209 -10Q165 -10 128 8ZM287 70T328 91T397 145V229H288Q137 229 137 150Q137 114 161 92T243 70Q287 70 328 91ZM266 567T257 578L188 660Q178 671 178 685Q178 702 188 712T215
722Q238 722 248 703L299 613Q306 603 306 594Q306 582 299 575T279 567Q266 567 257 578Z" />
<glyph unicode="&#xe1;" glyph-name="aacute" horiz-adv-x="562" d="M165 -10T128 8T68 60T46 140Q46 214 104 258T276 302H397V310Q397 376 365 405T263 434Q225 434 196 428T130 410Q122 408 117 408Q102 408 91 419T80 446Q80 473 106 484Q191 520 279 520Q348
520 395 492T465 420T488 323V40Q488 21 475 8T442 -5Q423 -5 410 8T397 40V66Q323 -10 209 -10Q165 -10 128 8ZM287 70T328 91T397 145V229H288Q137 229 137 150Q137 114 161 92T243 70Q287 70 328 91ZM267 567T260 574T252 594Q252 603 259 613L310 703Q320 722
343 722Q359 722 369 712T380 685Q380 671 370 660L301 578Q292 567 279 567Q267 567 260 574Z" />
<glyph unicode="&#xe2;" glyph-name="acircumflex" horiz-adv-x="562" d="M165 -10T128 8T68 60T46 140Q46 214 104 258T276 302H397V310Q397 376 365 405T263 434Q225 434 196 428T130 410Q122 408 117 408Q102 408 91 419T80 446Q80 473 106 484Q191 520 279
520Q348 520 395 492T465 420T488 323V40Q488 21 475 8T442 -5Q423 -5 410 8T397 40V66Q323 -10 209 -10Q165 -10 128 8ZM287 70T328 91T397 145V229H288Q137 229 137 150Q137 114 161 92T243 70Q287 70 328 91ZM161 566T152 575T144 596Q144 607 152 615L220 685Q229
695 238 700T260 705H298Q311 705 320 700T338 685L406 615Q414 607 414 596Q415 585 406 576T384 566Q373 566 366 573L279 647L192 573Q185 566 174 566Q161 566 152 575Z" />
<glyph unicode="&#xe3;" glyph-name="atilde" horiz-adv-x="562" d="M165 -10T128 8T68 60T46 140Q46 214 104 258T276 302H397V310Q397 376 365 405T263 434Q225 434 196 428T130 410Q122 408 117 408Q102 408 91 419T80 446Q80 473 106 484Q191 520 279 520Q348
520 395 492T465 420T488 323V40Q488 21 475 8T442 -5Q423 -5 410 8T397 40V66Q323 -10 209 -10Q165 -10 128 8ZM287 70T328 91T397 145V229H288Q137 229 137 150Q137 114 161 92T243 70Q287 70 328 91ZM132 571T125 577T118 594Q118 615 128 637T158 674T202 689Q222
689 239 683T282 665Q305 654 321 648T356 642Q371 642 379 649T393 669Q401 690 418 690Q428 690 434 684T441 668Q441 633 417 603T357 573Q337 573 319 579T275 598Q252 609 236 615T203 621Q177 621 164 589Q158 571 141 571Q132 571 125 577Z" />
<glyph unicode="&#xe4;" glyph-name="adieresis" horiz-adv-x="562" d="M165 -10T128 8T68 60T46 140Q46 214 104 258T276 302H397V310Q397 376 365 405T263 434Q225 434 196 428T130 410Q122 408 117 408Q102 408 91 419T80 446Q80 473 106 484Q191 520 279 520Q348
520 395 492T465 420T488 323V40Q488 21 475 8T442 -5Q423 -5 410 8T397 40V66Q323 -10 209 -10Q165 -10 128 8ZM287 70T328 91T397 145V229H288Q137 229 137 150Q137 114 161 92T243 70Q287 70 328 91ZM174 575T159 590T144 626Q144 647 159 662T195 677Q216 677
231 662T246 626Q246 605 231 590T195 575Q174 575 159 590ZM342 575T327 590T312 626Q312 647 327 662T363 677Q384 677 399 662T414 626Q414 605 399 590T363 575Q342 575 327 590Z" />
<glyph unicode="&#xe5;" glyph-name="aring" horiz-adv-x="562" d="M165 -10T128 8T68 60T46 140Q46 214 104 258T276 302H397V310Q397 376 365 405T263 434Q225 434 196 428T130 410Q122 408 117 408Q102 408 91 419T80 446Q80 473 106 484Q191 520 279 520Q348
520 395 492T465 420T488 323V40Q488 21 475 8T442 -5Q423 -5 410 8T397 40V66Q323 -10 209 -10Q165 -10 128 8ZM287 70T328 91T397 145V229H288Q137 229 137 150Q137 114 161 92T243 70Q287 70 328 91ZM240 551T213 578T185 645Q185 684 212 711T279 739Q318 739
345 712T373 645Q373 606 346 579T279 551Q240 551 213 578ZM299 596T313 610T328 645Q328 665 314 679T279 694Q259 694 245 680T230 645Q230 625 244 611T279 596Q299 596 313 610Z" />
<glyph unicode="&#xe6;" glyph-name="ae" horiz-adv-x="911" d="M188 -10T144 8T73 60T46 140Q46 213 104 256T276 299H397V310Q397 376 365 405T263 434Q225 434 196 428T130 410Q122 408 117 408Q102 408 91 419T80 446Q80 473 106 484Q191 520 279 520Q341
520 383 498T450 436Q513 520 631 520Q704 520 758 488T841 398T870 269Q870 252 858 239T826 226H482Q490 155 533 115T659 75Q701 75 732 83T794 106Q802 110 812 110Q828 110 840 99T852 71Q852 49 826 34Q787 12 749 1T651 -10Q583 -10 532 12T448 77Q416 28
361 9T242 -10Q188 -10 144 8ZM780 299Q777 348 755 380T699 428T631 443Q596 443 563 428T508 381T482 299H780ZM317 70T357 92T397 169V226H288Q214 226 176 209T137 150Q137 116 169 93T260 70Q317 70 357 92Z" />
<glyph unicode="&#xe7;" glyph-name="ccedilla" horiz-adv-x="533" d="M475 113T486 101T498 73Q498 51 478 38Q445 17 407 4T315 -10L285 -63Q301 -59 319 -59Q353 -59 374 -78T396 -129Q396 -175 368 -198T285 -221Q237 -221 195 -195Q191 -192 188 -188T184
-178Q184 -170 189 -164T203 -158Q207 -158 213 -161Q244 -178 272 -178Q329 -178 329 -132Q329 -117 319 -109T293 -101Q271 -101 249 -112Q243 -115 239 -115Q232 -115 227 -111T221 -99Q221 -91 225 -85L274 -7Q211 2 160 35T78 125T48 255Q48 336 84 396T182
488T315 520Q368 520 406 507T478 472Q498 459 498 437Q498 422 487 410T460 397Q449 397 438 403Q405 420 382 427T323 435Q237 435 188 386T139 255Q139 174 188 125T323 75Q358 75 381 82T438 107Q449 113 460 113Q475 113 486 101Z" />
<glyph unicode="&#xe8;" glyph-name="egrave" horiz-adv-x="566" d="M185 -10T117 59T48 255Q48 326 74 386T154 483T287 520Q361 520 415 486T497 394T525 268Q525 249 513 236T479 223H140Q148 153 192 114T315 75Q357 75 388 83T450 106Q458 110 468 110Q484
110 496 99T508 71Q508 49 482 34Q443 12 405 1T307 -10Q185 -10 117 59ZM435 297Q432 346 410 379T354 427T287 443Q253 443 220 428T165 379T140 297H435ZM272 567T263 578L194 660Q184 671 184 685Q184 702 194 712T221 722Q244 722 254 703L305 613Q312 603
312 594Q312 582 305 575T285 567Q272 567 263 578Z" />
<glyph unicode="&#xe9;" glyph-name="eacute" horiz-adv-x="566" d="M185 -10T117 59T48 255Q48 326 74 386T154 483T287 520Q361 520 415 486T497 394T525 268Q525 249 513 236T479 223H140Q148 153 192 114T315 75Q357 75 388 83T450 106Q458 110 468 110Q484
110 496 99T508 71Q508 49 482 34Q443 12 405 1T307 -10Q185 -10 117 59ZM435 297Q432 346 410 379T354 427T287 443Q253 443 220 428T165 379T140 297H435ZM273 567T266 574T258 594Q258 603 265 613L316 703Q326 722 349 722Q365 722 375 712T386 685Q386 671
376 660L307 578Q298 567 285 567Q273 567 266 574Z" />
<glyph unicode="&#xea;" glyph-name="ecircumflex" horiz-adv-x="566" d="M185 -10T117 59T48 255Q48 326 74 386T154 483T287 520Q361 520 415 486T497 394T525 268Q525 249 513 236T479 223H140Q148 153 192 114T315 75Q357 75 388 83T450 106Q458 110 468 110Q484
110 496 99T508 71Q508 49 482 34Q443 12 405 1T307 -10Q185 -10 117 59ZM435 297Q432 346 410 379T354 427T287 443Q253 443 220 428T165 379T140 297H435ZM167 566T158 575T150 596Q150 607 158 615L226 685Q235 695 244 700T266 705H304Q317 705 326 700T344
685L412 615Q420 607 420 596Q421 585 412 576T390 566Q379 566 372 573L285 647L198 573Q191 566 180 566Q167 566 158 575Z" />
<glyph unicode="&#xeb;" glyph-name="edieresis" horiz-adv-x="566" d="M185 -10T117 59T48 255Q48 326 74 386T154 483T287 520Q361 520 415 486T497 394T525 268Q525 249 513 236T479 223H140Q148 153 192 114T315 75Q357 75 388 83T450 106Q458 110 468 110Q484
110 496 99T508 71Q508 49 482 34Q443 12 405 1T307 -10Q185 -10 117 59ZM435 297Q432 346 410 379T354 427T287 443Q253 443 220 428T165 379T140 297H435ZM180 575T165 590T150 626Q150 647 165 662T201 677Q222 677 237 662T252 626Q252 605 237 590T201 575Q180
575 165 590ZM348 575T333 590T318 626Q318 647 333 662T369 677Q390 677 405 662T420 626Q420 605 405 590T369 575Q348 575 333 590Z" />
<glyph unicode="&#xec;" glyph-name="igrave" horiz-adv-x="249" d="M105 -5T92 8T79 40V469Q79 488 92 501T124 515Q144 515 157 502T170 469V40Q170 21 157 8T124 -5Q105 -5 92 8ZM112 567T103 578L34 660Q24 671 24 685Q24 702 34 712T61 722Q84 722 94 703L145
613Q152 603 152 594Q152 582 145 575T125 567Q112 567 103 578Z" />
<glyph unicode="&#xed;" glyph-name="iacute" horiz-adv-x="249" d="M105 -5T92 8T79 40V469Q79 488 92 501T124 515Q144 515 157 502T170 469V40Q170 21 157 8T124 -5Q105 -5 92 8ZM113 567T106 574T98 594Q98 603 105 613L156 703Q166 722 189 722Q205 722 215
712T226 685Q226 671 216 660L147 578Q138 567 125 567Q113 567 106 574Z" />
<glyph unicode="&#xee;" glyph-name="icircumflex" horiz-adv-x="249" d="M105 -5T92 8T79 40V469Q79 488 92 501T124 515Q144 515 157 502T170 469V40Q170 21 157 8T124 -5Q105 -5 92 8ZM7 566T-2 575T-10 596Q-10 607 -2 615L66 685Q75 695 84 700T106 705H144Q157
705 166 700T184 685L252 615Q260 607 260 596Q261 585 252 576T230 566Q219 566 212 573L125 647L38 573Q31 566 20 566Q7 566 -2 575Z" />
<glyph unicode="&#xef;" glyph-name="idieresis" horiz-adv-x="249" d="M105 -5T92 8T79 40V469Q79 488 92 501T124 515Q144 515 157 502T170 469V40Q170 21 157 8T124 -5Q105 -5 92 8ZM20 575T5 590T-10 626Q-10 647 5 662T41 677Q62 677 77 662T92 626Q92 605
77 590T41 575Q20 575 5 590ZM188 575T173 590T158 626Q158 647 173 662T209 677Q230 677 245 662T260 626Q260 605 245 590T209 575Q188 575 173 590Z" />
<glyph unicode="&#xf0;" glyph-name="eth" horiz-adv-x="593" d="M222 -10T166 22T79 113T48 248Q48 316 76 375T157 469T282 505Q341 505 395 477Q354 538 288 594L204 545Q194 539 187 539Q177 539 170 546T162 564Q162 579 177 587L245 627Q195 661 169 675Q160
679 155 689T149 710Q149 728 161 740T191 752Q202 752 213 746Q273 709 321 671L389 712Q397 717 404 717Q415 717 422 710T429 692Q429 678 417 670L361 637Q442 564 493 473T545 274Q545 149 484 70T296 -10Q222 -10 166 22ZM336 70T373 89T433 149T457 252Q457
313 434 353T373 412T296 431Q256 431 220 413T160 354T136 252Q136 190 159 149T219 89T296 70Q336 70 373 89Z" />
<glyph unicode="&#xf1;" glyph-name="ntilde" horiz-adv-x="609" d="M105 -5T92 8T79 40V469Q79 488 92 501T124 515Q143 515 156 502T170 469V428Q208 470 252 495T356 520Q411 520 451 494T513 423T535 324V40Q535 21 522 8T489 -5Q470 -5 457 8T444 40V314Q444
436 334 436Q284 436 245 410T170 340V40Q170 21 157 8T124 -5Q105 -5 92 8ZM158 571T151 577T144 594Q144 615 154 637T184 674T228 689Q248 689 265 683T308 665Q331 654 347 648T382 642Q397 642 405 649T419 669Q427 690 444 690Q454 690 460 684T467 668Q467
633 443 603T383 573Q363 573 345 579T301 598Q278 609 262 615T229 621Q203 621 190 589Q184 571 167 571Q158 571 151 577Z" />
<glyph unicode="&#xf2;" glyph-name="ograve" horiz-adv-x="608" d="M227 -10T169 23T80 116T48 255Q48 333 79 393T169 487T304 520Q380 520 438 487T528 394T560 255Q560 177 528 117T438 23T304 -10Q227 -10 169 23ZM345 73T382 92T444 152T469 256Q469 318
445 359T383 418T304 437Q262 437 225 419T163 359T139 256Q139 193 163 152T224 92T304 73Q345 73 382 92ZM291 567T282 578L213 660Q203 671 203 685Q203 702 213 712T240 722Q263 722 273 703L324 613Q331 603 331 594Q331 582 324 575T304 567Q291 567 282
578Z" />
<glyph unicode="&#xf3;" glyph-name="oacute" horiz-adv-x="608" d="M227 -10T169 23T80 116T48 255Q48 333 79 393T169 487T304 520Q380 520 438 487T528 394T560 255Q560 177 528 117T438 23T304 -10Q227 -10 169 23ZM345 73T382 92T444 152T469 256Q469 318
445 359T383 418T304 437Q262 437 225 419T163 359T139 256Q139 193 163 152T224 92T304 73Q345 73 382 92ZM292 567T285 574T277 594Q277 603 284 613L335 703Q345 722 368 722Q384 722 394 712T405 685Q405 671 395 660L326 578Q317 567 304 567Q292 567 285
574Z" />
<glyph unicode="&#xf4;" glyph-name="ocircumflex" horiz-adv-x="608" d="M227 -10T169 23T80 116T48 255Q48 333 79 393T169 487T304 520Q380 520 438 487T528 394T560 255Q560 177 528 117T438 23T304 -10Q227 -10 169 23ZM345 73T382 92T444 152T469 256Q469
318 445 359T383 418T304 437Q262 437 225 419T163 359T139 256Q139 193 163 152T224 92T304 73Q345 73 382 92ZM186 566T177 575T169 596Q169 607 177 615L245 685Q254 695 263 700T285 705H323Q336 705 345 700T363 685L431 615Q439 607 439 596Q440 585 431
576T409 566Q398 566 391 573L304 647L217 573Q210 566 199 566Q186 566 177 575Z" />
<glyph unicode="&#xf5;" glyph-name="otilde" horiz-adv-x="608" d="M227 -10T169 23T80 116T48 255Q48 333 79 393T169 487T304 520Q380 520 438 487T528 394T560 255Q560 177 528 117T438 23T304 -10Q227 -10 169 23ZM345 73T382 92T444 152T469 256Q469 318
445 359T383 418T304 437Q262 437 225 419T163 359T139 256Q139 193 163 152T224 92T304 73Q345 73 382 92ZM157 571T150 577T143 594Q143 615 153 637T183 674T227 689Q247 689 264 683T307 665Q330 654 346 648T381 642Q396 642 404 649T418 669Q426 690 443
690Q453 690 459 684T466 668Q466 633 442 603T382 573Q362 573 344 579T300 598Q277 609 261 615T228 621Q202 621 189 589Q183 571 166 571Q157 571 150 577Z" />
<glyph unicode="&#xf6;" glyph-name="odieresis" horiz-adv-x="608" d="M227 -10T169 23T80 116T48 255Q48 333 79 393T169 487T304 520Q380 520 438 487T528 394T560 255Q560 177 528 117T438 23T304 -10Q227 -10 169 23ZM345 73T382 92T444 152T469 256Q469
318 445 359T383 418T304 437Q262 437 225 419T163 359T139 256Q139 193 163 152T224 92T304 73Q345 73 382 92ZM199 575T184 590T169 626Q169 647 184 662T220 677Q241 677 256 662T271 626Q271 605 256 590T220 575Q199 575 184 590ZM367 575T352 590T337 626Q337
647 352 662T388 677Q409 677 424 662T439 626Q439 605 424 590T388 575Q367 575 352 590Z" />
<glyph unicode="&#xf7;" glyph-name="divide" horiz-adv-x="712" d="M335 465T320 480T305 516Q305 537 320 552T356 567Q377 567 392 552T407 516Q407 495 392 480T356 465Q335 465 320 480ZM96 291T85 302T73 331Q73 348 84 360T113 372H598Q615 372 627 360T639
331Q639 314 627 303T598 291H113Q96 291 85 302ZM335 95T320 110T305 146Q305 167 320 182T356 197Q377 197 392 182T407 146Q407 125 392 110T356 95Q335 95 320 110Z" />
<glyph unicode="&#xf8;" glyph-name="oslash" horiz-adv-x="608" d="M109 -31T102 -24T95 -7Q95 1 101 10L130 51Q91 87 70 139T48 255Q48 333 79 393T169 487T304 520Q375 520 436 488L465 529Q472 539 486 539Q497 539 504 532T511 515Q511 507 505 498L477
458Q517 423 538 371T560 255Q560 177 528 117T438 23T304 -10Q229 -10 171 22L141 -21Q134 -31 120 -31Q109 -31 102 -24ZM386 416Q347 437 304 437Q262 437 225 419T163 359T139 256Q139 173 182 125L386 416ZM345 73T382 92T444 152T469 256Q469 335 426 385L222
94Q258 73 304 73Q345 73 382 92Z" />
<glyph unicode="&#xf9;" glyph-name="ugrave" horiz-adv-x="609" d="M198 -10T158 16T96 87T74 186V470Q74 489 87 502T120 515Q139 515 152 502T165 470V196Q165 74 275 74Q325 74 364 100T439 170V470Q439 489 452 502T485 515Q504 515 517 502T530 470V41Q530
22 517 9T485 -5Q466 -5 453 8T439 41V82Q401 40 357 15T253 -10Q198 -10 158 16ZM292 567T283 578L214 660Q204 671 204 685Q204 702 214 712T241 722Q264 722 274 703L325 613Q332 603 332 594Q332 582 325 575T305 567Q292 567 283 578Z" />
<glyph unicode="&#xfa;" glyph-name="uacute" horiz-adv-x="609" d="M198 -10T158 16T96 87T74 186V470Q74 489 87 502T120 515Q139 515 152 502T165 470V196Q165 74 275 74Q325 74 364 100T439 170V470Q439 489 452 502T485 515Q504 515 517 502T530 470V41Q530
22 517 9T485 -5Q466 -5 453 8T439 41V82Q401 40 357 15T253 -10Q198 -10 158 16ZM293 567T286 574T278 594Q278 603 285 613L336 703Q346 722 369 722Q385 722 395 712T406 685Q406 671 396 660L327 578Q318 567 305 567Q293 567 286 574Z" />
<glyph unicode="&#xfb;" glyph-name="ucircumflex" horiz-adv-x="609" d="M198 -10T158 16T96 87T74 186V470Q74 489 87 502T120 515Q139 515 152 502T165 470V196Q165 74 275 74Q325 74 364 100T439 170V470Q439 489 452 502T485 515Q504 515 517 502T530 470V41Q530
22 517 9T485 -5Q466 -5 453 8T439 41V82Q401 40 357 15T253 -10Q198 -10 158 16ZM187 566T178 575T170 596Q170 607 178 615L246 685Q255 695 264 700T286 705H324Q337 705 346 700T364 685L432 615Q440 607 440 596Q441 585 432 576T410 566Q399 566 392 573L305
647L218 573Q211 566 200 566Q187 566 178 575Z" />
<glyph unicode="&#xfc;" glyph-name="udieresis" horiz-adv-x="609" d="M198 -10T158 16T96 87T74 186V470Q74 489 87 502T120 515Q139 515 152 502T165 470V196Q165 74 275 74Q325 74 364 100T439 170V470Q439 489 452 502T485 515Q504 515 517 502T530 470V41Q530
22 517 9T485 -5Q466 -5 453 8T439 41V82Q401 40 357 15T253 -10Q198 -10 158 16ZM200 575T185 590T170 626Q170 647 185 662T221 677Q242 677 257 662T272 626Q272 605 257 590T221 575Q200 575 185 590ZM368 575T353 590T338 626Q338 647 353 662T389 677Q410
677 425 662T440 626Q440 605 425 590T389 575Q368 575 353 590Z" />
<glyph unicode="&#xfd;" glyph-name="yacute" horiz-adv-x="537" d="M175 -235T163 -222T150 -191Q150 -183 153 -175L218 -8L30 450Q26 460 26 469Q26 488 39 501T71 515Q85 515 96 507T113 487L267 105L424 485Q437 515 466 515Q485 515 498 502T511 469Q511
460 508 452L235 -204Q221 -235 193 -235Q175 -235 163 -222ZM257 567T250 574T242 594Q242 603 249 613L300 703Q310 722 333 722Q349 722 359 712T370 685Q370 671 360 660L291 578Q282 567 269 567Q257 567 250 574Z" />
<glyph unicode="&#xfe;" glyph-name="thorn" horiz-adv-x="631" d="M105 -235T92 -222T79 -189V689Q79 708 92 721T124 735Q144 735 157 722T170 689V444Q243 520 341 520Q403 520 458 489T548 397T583 255Q583 174 549 114T459 22T341 -10Q243 -10 170 66V-189Q170
-209 157 -222T124 -235Q105 -235 92 -222ZM402 75T447 122T492 255Q492 341 447 388T328 435Q282 435 242 415T170 360V150Q201 116 241 96T328 75Q402 75 447 122Z" />
<glyph unicode="&#xff;" glyph-name="ydieresis" horiz-adv-x="537" d="M175 -235T163 -222T150 -191Q150 -183 153 -175L218 -8L30 450Q26 460 26 469Q26 488 39 501T71 515Q85 515 96 507T113 487L267 105L424 485Q437 515 466 515Q485 515 498 502T511 469Q511
460 508 452L235 -204Q221 -235 193 -235Q175 -235 163 -222ZM164 575T149 590T134 626Q134 647 149 662T185 677Q206 677 221 662T236 626Q236 605 221 590T185 575Q164 575 149 590ZM332 575T317 590T302 626Q302 647 317 662T353 677Q374 677 389 662T404 626Q404
605 389 590T353 575Q332 575 317 590Z" />
<glyph unicode="&#x2013;" glyph-name="endash" horiz-adv-x="684" d="M92 240T81 251T69 280Q69 297 80 309T109 321H574Q591 321 603 309T615 280Q615 263 603 252T574 240H109Q92 240 81 251Z" />
<glyph unicode="&#x2014;" glyph-name="emdash" horiz-adv-x="891" d="M92 240T81 251T69 280Q69 297 80 309T109 321H781Q798 321 810 309T822 280Q822 263 810 252T781 240H109Q92 240 81 251Z" />
<glyph unicode="&#x2018;" glyph-name="quoteleft" horiz-adv-x="255" d="M99 477T83 493T66 533V592Q66 688 148 738Q155 743 165 743Q177 743 185 734T194 713Q194 697 179 688Q154 673 141 653T128 595H132Q155 595 171 579T188 539V533Q188 510 172 494T132
477H122Q99 477 83 493Z" />
<glyph unicode="&#x2019;" glyph-name="quoteright" horiz-adv-x="238" d="M80 477T72 486T63 507Q63 523 78 532Q103 547 116 567T129 625H125Q102 625 86 641T69 681V687Q69 710 85 726T125 743H135Q158 743 174 727T191 687V628Q191 532 109 482Q101 477 92
477Q80 477 72 486Z" />
<glyph unicode="&#x201a;" glyph-name="quotesinglbase" horiz-adv-x="260" d="M80 -151T72 -142T63 -121Q63 -105 78 -96Q103 -81 116 -61T129 -3H125Q102 -3 86 13T69 53V59Q69 82 85 98T125 115H135Q158 115 174 99T191 59V0Q191 -96 109 -146Q101 -151 92
-151Q80 -151 72 -142Z" />
<glyph unicode="&#x201c;" glyph-name="quotedblleft" horiz-adv-x="437" d="M99 477T83 493T66 533V592Q66 688 148 738Q155 743 165 743Q177 743 185 734T194 713Q194 697 179 688Q154 673 141 653T128 595H132Q155 595 171 579T188 539V533Q188 510 172 494T132
477H122Q99 477 83 493ZM280 477T264 493T247 533V592Q247 688 329 738Q336 743 346 743Q358 743 366 734T375 713Q375 697 360 688Q335 673 322 653T309 595H313Q336 595 352 579T369 539V533Q369 510 353 494T313 477H303Q280 477 264 493Z" />
<glyph unicode="&#x201d;" glyph-name="quotedblright" horiz-adv-x="420" d="M80 477T72 486T63 507Q63 523 78 532Q103 547 116 567T129 625H125Q102 625 86 641T69 681V687Q69 710 85 726T125 743H135Q158 743 174 727T191 687V628Q191 532 109 482Q101 477
92 477Q80 477 72 486ZM261 477T253 486T244 507Q244 523 259 532Q284 547 297 567T310 625H306Q283 625 267 641T250 681V687Q250 710 266 726T306 743H316Q339 743 355 727T372 687V628Q372 532 290 482Q283 477 273 477Q261 477 253 486Z" />
<glyph unicode="&#x201e;" glyph-name="quotedblbase" horiz-adv-x="441" d="M80 -151T72 -142T63 -121Q63 -105 78 -96Q103 -81 116 -61T129 -3H125Q102 -3 86 13T69 53V59Q69 82 85 98T125 115H135Q158 115 174 99T191 59V0Q191 -96 109 -146Q101 -151 92 -151Q80
-151 72 -142ZM261 -151T253 -142T244 -121Q244 -105 259 -96Q284 -81 297 -61T310 -3H306Q283 -3 267 13T250 53V59Q250 82 266 98T306 115H316Q339 115 355 99T372 59V0Q372 -96 290 -146Q283 -151 273 -151Q261 -151 253 -142Z" />
<glyph unicode="&#x2022;" glyph-name="bullet" horiz-adv-x="377" d="M153 260T123 278T74 326T56 393Q56 429 74 459T122 508T189 526Q225 526 255 508T303 460T321 393Q321 357 304 327T256 278T189 260Q153 260 123 278Z" />
<glyph unicode="&#x2039;" glyph-name="guilsinglleft" horiz-adv-x="377" d="M245 20T236 31L72 212Q54 232 54 255Q54 278 72 298L236 479Q245 490 264 490Q281 490 292 479T303 451Q303 436 294 425L134 255L294 85Q303 75 303 59Q303 42 292 31T264 20Q245
20 236 31Z" />
<glyph unicode="&#x203a;" glyph-name="guilsinglright" horiz-adv-x="377" d="M96 20T85 31T74 59Q74 75 83 85L243 255L83 425Q74 436 74 451Q74 468 85 479T113 490Q132 490 141 479L305 298Q323 278 323 255Q323 232 305 212L141 31Q132 20 113 20Q96 20 85 31Z" />
</font>
</defs>
</svg>
