<svg height="512" viewBox="0 0 128 128" width="512" xmlns="http://www.w3.org/2000/svg"><g id="icon"><path d="m77.028 21.024-1.537-8.584a6.111 6.111 0 0 0 -6.022-5.04h-12.59a6.113 6.113 0 0 0 -6.022 5.04l-1.536 8.584-4.807-.861 1.536-8.584a10.99 10.99 0 0 1 10.829-9.063h12.59a10.992 10.992 0 0 1 10.831 9.063l1.536 8.584z" fill="#d0aa79"/><path d="m98.859 77.1h-1.459v50.893h8.958a9.111 9.111 0 0 0 9.111-9.111l2.442-22.735a19.047 19.047 0 0 0 -19.052-19.047z" fill="#c69f75"/><path d="m29.141 77.1h1.464l11.617 50.893h-20.575a9.111 9.111 0 0 1 -9.111-9.111l-2.442-22.735a19.047 19.047 0 0 1 19.047-19.047z" fill="#c69f75"/><path d="m106.292 119.568a9.24 9.24 0 0 1 -9.192 8.432h-65.811a9.241 9.241 0 0 1 -9.175-8.384c-2.827-29.982-2.133-62 3.166-89.186a16.716 16.716 0 0 1 10.5-12.406 16.938 16.938 0 0 1 5.944-1.082h44.505a16.757 16.757 0 0 1 16.541 14.021 364.618 364.618 0 0 1 3.522 88.605z" fill="#d0aa79"/><rect fill="#ddb283" height="47.856" rx="5.356" width="62.703" x="31.823" y="73.43"/><path d="m73.378 1.432a40.173 40.173 0 0 0 -21.259 0 2.34 2.34 0 0 0 -1.6 3.011l1.303 3.817a2.3 2.3 0 0 0 2.768 1.493 31.5 31.5 0 0 1 16.317 0 2.3 2.3 0 0 0 2.767-1.493q.654-1.908 1.307-3.817a2.341 2.341 0 0 0 -1.603-3.011z" fill="#e8c79c"/><path d="m92.645 20.55a4.312 4.312 0 0 0 -3.468-3.35 16.869 16.869 0 0 0 -2.948-.259h-44.5a16.8 16.8 0 0 0 -3.1.288 4.315 4.315 0 0 0 -3.439 3.276 84.892 84.892 0 0 0 -.567 30.908c.323 1.971 3.1 3.489 6.445 3.489h46.146c3.36 0 6.155-1.534 6.445-3.5a90.841 90.841 0 0 0 -1.014-30.852z" fill="#ddb283"/><path d="m43.389 42.674v50.664a4.02 4.02 0 0 0 8.04 0v-50.664z" fill="#c69f75"/><rect fill="#dbe2eb" height="11.838" rx=".761" width="12.409" x="41.205" y="77.1"/><path d="m43.079 79.133h8.661v7.773h-8.661z" fill="#d0aa79"/><path d="m47.409 78.3a.653.653 0 0 0 -.652.653v4.261a.653.653 0 0 0 1.3 0v-4.258a.653.653 0 0 0 -.648-.656z" fill="#dbe2eb"/><path d="m74.919 42.674v50.664a4.02 4.02 0 0 0 8.04 0v-50.664z" fill="#c69f75"/><rect fill="#dbe2eb" height="11.838" rx=".761" width="12.409" x="72.735" y="77.1"/><path d="m74.609 79.133h8.661v7.773h-8.661z" fill="#d0aa79"/><path d="m78.939 78.3a.654.654 0 0 0 -.653.653v4.261a.653.653 0 0 0 1.306 0v-4.258a.653.653 0 0 0 -.653-.656z" fill="#dbe2eb"/></g></svg>