<svg xmlns="http://www.w3.org/2000/svg" height="512pt" version="1.1" viewBox="0 -45 512.0006 512" width="512pt">
<g id="surface1">
<path d="M 72.210938 33.191406 C 67.625 33.191406 63.914062 29.480469 63.914062 24.894531 L 63.914062 8.296875 C 63.914062 3.710938 67.625 0 72.210938 0 C 76.796875 0 80.507812 3.710938 80.507812 8.296875 L 80.507812 24.894531 C 80.507812 29.480469 76.796875 33.191406 72.210938 33.191406 Z M 72.210938 33.191406 " style=" stroke:none;fill-rule:nonzero;fill:rgb(36.470588%,32.54902%,37.647059%);fill-opacity:1;" />
<path d="M 487.105469 33.191406 C 482.519531 33.191406 478.808594 29.480469 478.808594 24.894531 L 478.808594 8.296875 C 478.808594 3.710938 482.519531 0 487.105469 0 C 491.695312 0 495.40625 3.710938 495.40625 8.296875 L 495.40625 24.894531 C 495.40625 29.480469 491.695312 33.191406 487.105469 33.191406 Z M 487.105469 33.191406 " style=" stroke:none;fill-rule:nonzero;fill:rgb(36.470588%,32.54902%,37.647059%);fill-opacity:1;" />
<path d="M 304.5625 199.148438 C 304.019531 199.148438 303.472656 199.101562 302.921875 198.988281 C 264.828125 191.371094 254.765625 157.765625 254.765625 141.066406 C 254.765625 136.476562 258.476562 132.765625 263.0625 132.765625 C 267.632812 132.765625 271.34375 136.460938 271.359375 141.035156 C 271.375 142.46875 272.074219 175.894531 306.179688 182.71875 C 310.667969 183.617188 313.585938 187.984375 312.6875 192.480469 C 311.902344 196.425781 308.433594 199.148438 304.5625 199.148438 Z M 271.363281 141.0625 L 271.441406 141.0625 Z M 271.363281 141.0625 " style=" stroke:none;fill-rule:nonzero;fill:rgb(29.411765%,24.705882%,30.588235%);fill-opacity:1;" />
<path d="M 321.148438 232.339844 L 188.382812 232.339844 L 188.382812 215.746094 L 321.148438 215.746094 C 330.296875 215.746094 337.746094 208.296875 337.746094 199.148438 L 337.746094 132.765625 L 354.339844 132.765625 L 354.339844 199.148438 C 354.339844 217.457031 339.453125 232.339844 321.148438 232.339844 Z M 321.148438 232.339844 " style=" stroke:none;fill-rule:nonzero;fill:rgb(29.411765%,24.705882%,30.588235%);fill-opacity:1;" />
<path d="M 503.703125 24.894531 L 65.261719 24.894531 C 54.546875 24.894531 45.03125 31.75 41.644531 41.917969 L 18.429688 111.5625 C 15.925781 119.066406 19.070312 127.292969 25.941406 131.21875 L 60.527344 150.984375 C 67.339844 154.875 70.496094 163.003906 68.09375 170.472656 L 0.402344 381.066406 C -1.125 385.8125 1.851562 390.824219 6.75 391.757812 L 164.351562 421.777344 C 168.75 422.617188 173.167969 420.429688 175.171875 416.421875 C 177.808594 411.152344 175.335938 404.753906 169.84375 402.621094 C 163.425781 400.128906 159.761719 393.351562 161.1875 386.617188 L 207.695312 167.371094 C 210.949219 152.035156 224.488281 141.066406 240.164062 141.066406 L 487.105469 141.066406 C 496.273438 141.066406 503.703125 133.636719 503.703125 124.46875 L 503.703125 91.277344 C 508.285156 91.277344 512 87.5625 512 82.980469 L 512 33.191406 C 512 28.609375 508.285156 24.894531 503.703125 24.894531 Z M 503.703125 24.894531 " style=" stroke:none;fill-rule:nonzero;fill:rgb(36.470588%,32.54902%,37.647059%);fill-opacity:1;" />
<path d="M 512 33.191406 C 512 28.609375 508.285156 24.894531 503.703125 24.894531 L 65.261719 24.894531 C 54.546875 24.894531 45.03125 31.75 41.644531 41.914062 L 18.429688 111.5625 C 15.925781 119.066406 19.070312 127.292969 25.941406 131.21875 L 60.53125 150.984375 C 67.339844 154.875 70.496094 163.003906 68.09375 170.46875 L 0.402344 381.066406 C -1.125 385.8125 1.851562 390.824219 6.75 391.757812 L 164.347656 421.777344 C 168.746094 422.613281 173.167969 420.425781 175.171875 416.421875 C 177.804688 411.148438 175.335938 404.753906 169.84375 402.621094 L 99.191406 384.550781 C 75.714844 378.546875 62.359375 353.785156 70.238281 330.867188 L 137.265625 135.875 C 143.027344 119.121094 158.785156 107.871094 176.503906 107.871094 L 503.703125 107.871094 L 503.703125 91.277344 C 508.285156 91.277344 512 87.5625 512 82.980469 Z M 512 33.191406 " style=" stroke:none;fill-rule:nonzero;fill:rgb(29.411765%,24.705882%,30.588235%);fill-opacity:1;" />
<path d="M 503.703125 24.894531 L 65.261719 24.894531 C 54.546875 24.894531 45.03125 31.75 41.644531 41.917969 L 25.191406 91.277344 L 503.703125 91.277344 C 508.285156 91.277344 512 87.5625 512 82.980469 L 512 33.191406 C 512 28.609375 508.285156 24.894531 503.703125 24.894531 Z M 503.703125 24.894531 " style=" stroke:none;fill-rule:nonzero;fill:rgb(43.529412%,39.607843%,44.313725%);fill-opacity:1;" />
<path d="M 42.042969 29.355469 C 35.339844 23.101562 24.839844 23.464844 18.585938 30.167969 C 12.335938 36.871094 12.699219 47.371094 19.398438 53.625 L 36.296875 69.625 L 50.457031 37.570312 Z M 42.042969 29.355469 " style=" stroke:none;fill-rule:nonzero;fill:rgb(29.411765%,24.705882%,30.588235%);fill-opacity:1;" />
<path d="M 196.679688 124.46875 L 171.785156 124.46875 C 162.621094 124.46875 155.191406 117.039062 155.191406 107.871094 C 155.191406 98.707031 162.621094 91.277344 171.785156 91.277344 L 196.679688 91.277344 C 205.847656 91.277344 213.277344 98.707031 213.277344 107.871094 C 213.277344 117.039062 205.84375 124.46875 196.679688 124.46875 Z M 196.679688 124.46875 " style=" stroke:none;fill-rule:nonzero;fill:rgb(43.529412%,39.607843%,44.313725%);fill-opacity:1;" />
<path d="M 68.886719 165.128906 C 68.917969 166.90625 68.660156 168.703125 68.09375 170.472656 L 64.644531 181.203125 L 199.058594 208.085938 L 202.503906 191.851562 Z M 68.886719 165.128906 " style=" stroke:none;fill-rule:nonzero;fill:rgb(43.529412%,39.607843%,44.313725%);fill-opacity:1;" />
<path d="M 68.886719 165.128906 C 68.917969 166.90625 68.660156 168.703125 68.09375 170.472656 L 64.644531 181.203125 L 118.015625 191.878906 L 123.457031 176.042969 Z M 68.886719 165.128906 " style=" stroke:none;fill-rule:nonzero;fill:rgb(36.470588%,32.54902%,37.647059%);fill-opacity:1;" />
<path d="M 73.109375 74.679688 C 61.78125 74.679688 53.785156 63.582031 57.367188 52.835938 L 66.539062 25.320312 C 66.589844 25.171875 66.667969 25.039062 66.71875 24.894531 L 65.261719 24.894531 C 54.546875 24.894531 45.03125 31.75 41.644531 41.914062 L 25.191406 91.277344 L 503.703125 91.277344 C 508.285156 91.277344 512 87.5625 512 82.980469 L 512 74.679688 Z M 73.109375 74.679688 " style=" stroke:none;fill-rule:nonzero;fill:rgb(36.470588%,32.54902%,37.647059%);fill-opacity:1;" />
<path d="M 254.765625 41.488281 L 512 41.488281 L 512 58.085938 L 254.765625 58.085938 C 250.183594 58.085938 246.46875 54.371094 246.46875 49.789062 C 246.46875 45.203125 250.183594 41.488281 254.765625 41.488281 Z M 254.765625 41.488281 " style=" stroke:none;fill-rule:nonzero;fill:rgb(36.470588%,32.54902%,37.647059%);fill-opacity:1;" />
<path d="M 138.03125 91.277344 L 155.761719 91.277344 L 180.660156 24.894531 L 162.929688 24.894531 Z M 138.03125 91.277344 " style=" stroke:none;fill-rule:nonzero;fill:rgb(36.470588%,32.54902%,37.647059%);fill-opacity:1;" />
<path d="M 96.410156 91.277344 L 114.140625 91.277344 L 139.039062 24.894531 L 121.3125 24.894531 Z M 96.410156 91.277344 " style=" stroke:none;fill-rule:nonzero;fill:rgb(36.470588%,32.54902%,37.647059%);fill-opacity:1;" />
<path d="M 54.792969 91.277344 L 72.523438 91.277344 L 97.421875 24.894531 L 79.691406 24.894531 Z M 54.792969 91.277344 " style=" stroke:none;fill-rule:nonzero;fill:rgb(36.470588%,32.54902%,37.647059%);fill-opacity:1;" />
<path d="M 73.109375 74.679688 C 68.984375 74.679688 65.308594 73.214844 62.464844 70.824219 L 54.792969 91.277344 L 72.523438 91.277344 L 78.746094 74.679688 Z M 73.109375 74.679688 " style=" stroke:none;fill-rule:nonzero;fill:rgb(29.411765%,24.705882%,30.588235%);fill-opacity:1;" />
<path d="M 102.636719 74.679688 L 96.410156 91.277344 L 114.140625 91.277344 L 120.367188 74.679688 Z M 102.636719 74.679688 " style=" stroke:none;fill-rule:nonzero;fill:rgb(29.411765%,24.705882%,30.588235%);fill-opacity:1;" />
<path d="M 144.253906 74.679688 L 138.03125 91.277344 L 155.761719 91.277344 L 161.984375 74.679688 Z M 144.253906 74.679688 " style=" stroke:none;fill-rule:nonzero;fill:rgb(29.411765%,24.705882%,30.588235%);fill-opacity:1;" />
</g>
</svg>