<?xml version="1.0" encoding="iso-8859-1"?>
<!-- Generator: Adobe Illustrator 19.0.0, SVG Export Plug-In . SVG Version: 6.00 Build 0)  -->
<svg version="1.1" id="Capa_1" xmlns="http://www.w3.org/2000/svg" xmlns:xlink="http://www.w3.org/1999/xlink" x="0px" y="0px"
	 viewBox="0 0 512 512" style="enable-background:new 0 0 512 512;" xml:space="preserve">
<path style="fill:#992A2A;" d="M312.13,146.152h-10.053L256,410.725l188.484-67.516C444.484,254.078,389.814,177.807,312.13,146.152
	z"/>
<path style="fill:#DF3333;" d="M302.077,146.152H199.87C122.186,177.807,67.516,254.078,67.516,343.209L256,410.725l154.725-67.516
	C410.725,254.078,365.847,177.807,302.077,146.152z"/>
<path style="fill:#CCC9C0;" d="M346.022,90.022c0-9.165-5.487-17.036-13.347-20.545c5.052-6.97,5.868-16.529,1.286-24.466
	c-4.582-7.938-13.269-12.01-21.831-11.119c0.89-8.562-3.182-17.249-11.119-21.831c-6.024-3.477-12.978-3.839-19.03-1.607
	l-0.006,159.134c6.052,2.235,13.009,1.874,19.034-1.605c7.937-4.582,12.009-13.269,11.119-21.831
	c8.562,0.891,17.249-3.182,21.831-11.119c4.582-7.938,3.766-17.496-1.286-24.466C340.535,107.056,346.022,99.187,346.022,90.022z"/>
<path style="fill:#E8E5DA;" d="M291.082,146.152c5.352,0.891,10.78-3.182,13.645-11.119c2.864-7.938,2.354-17.496-0.803-24.466
	c4.913-3.511,8.342-11.38,8.342-20.545s-3.429-17.036-8.342-20.545c3.158-6.97,3.668-16.529,0.803-24.466
	c-2.864-7.938-8.293-12.01-13.645-11.119c0.557-8.562-1.988-17.249-6.95-21.831c-0.699-0.645-1.419-1.173-2.15-1.607
	c-1.923,0.709-3.756,1.676-5.437,2.893C273.036,5.486,265.165,0,256,0c-9.165,0-17.036,5.486-20.545,13.347
	c-6.97-5.052-16.529-5.868-24.466-1.286c-7.937,4.582-12.009,13.269-11.119,21.831c-8.562-0.891-17.249,3.182-21.831,11.119
	s-3.766,17.496,1.286,24.466c-7.86,3.51-13.347,11.38-13.347,20.545s5.487,17.034,13.347,20.545
	c-5.052,6.97-5.868,16.528-1.286,24.466c4.582,7.937,13.269,12.009,21.831,11.119c-0.89,8.562,3.182,17.249,11.119,21.831
	c7.937,4.582,17.496,3.766,24.466-1.286c3.51,7.86,11.38,13.347,20.545,13.347c9.165,0,17.036-5.487,20.545-13.347
	c1.679,1.218,3.511,2.182,5.432,2.891c0.733-0.435,1.455-0.959,2.155-1.605C289.092,163.4,291.637,154.714,291.082,146.152z"/>
<path style="fill:#E55C5C;" d="M67.516,343.209c-18.567,0-33.758,15.191-33.758,33.758v101.275
	c0,18.567,15.191,33.758,33.758,33.758h33.758l29.74-84.396l-29.74-84.396H67.516z"/>
<polygon style="fill:#EC8585;" points="101.275,343.209 101.275,512 163.165,512 196.467,427.604 163.165,343.209 "/>
<polygon style="fill:#E55C5C;" points="163.165,343.209 163.165,512 225.055,512 258.357,427.604 225.055,343.209 "/>
<polygon style="fill:#EC8585;" points="225.055,343.209 225.055,512 286.945,512 320.248,427.604 286.945,343.209 "/>
<polygon style="fill:#E55C5C;" points="286.945,343.209 286.945,512 348.835,512 382.138,427.604 348.835,343.209 "/>
<polygon style="fill:#EC8585;" points="348.835,343.209 348.835,512 410.725,512 444.028,427.604 410.725,343.209 "/>
<path style="fill:#DF3333;" d="M444.484,343.209h-33.758V512h33.758c18.567,0,33.758-15.191,33.758-33.758V376.967
	C478.242,358.4,463.051,343.209,444.484,343.209z"/>
<path style="fill:#E55C5C;" d="M410.725,343.209V512c18.567,0,33.758-15.191,33.758-33.758V376.967
	C444.484,358.4,429.292,343.209,410.725,343.209z"/>
<g>
</g>
<g>
</g>
<g>
</g>
<g>
</g>
<g>
</g>
<g>
</g>
<g>
</g>
<g>
</g>
<g>
</g>
<g>
</g>
<g>
</g>
<g>
</g>
<g>
</g>
<g>
</g>
<g>
</g>
</svg>
