<svg height="512" viewBox="0 0 64 64" width="512" xmlns="http://www.w3.org/2000/svg"><g id="flat"><path d="m47.56 61h-31.12a2 2 0 0 1 -1.96-2.39l1.52-9.61-1-17c-.38-5.35 1.96-10.17 7-12l3-1h14l3 1c5.04 1.83 7.38 6.65 7 12l-.71 12-.29 5 1.11 7 .41 2.61a2 2 0 0 1 -1.96 2.39z" fill="#d3843d"/><path d="m36 7-.273-1.091a3.839 3.839 0 0 0 -3.727-2.909 3.839 3.839 0 0 0 -3.725 2.909l-.275 1.091-2.73-.91a2 2 0 0 0 -2.594 2.289l2.324 6.621h14l2.324-6.621a2 2 0 0 0 -2.594-2.289z" fill="#d3843d"/><path d="m28.5 10.95h2v5.099h-2z" fill="#ad6327" transform="matrix(.981 -.196 .196 .981 -2.075 6.048)"/><path d="m31.307 12.5h5.385v2.001h-5.385z" fill="#ad6327" transform="matrix(.371 -.928 .928 .371 8.836 40.052)"/><path d="m20.962 29.275-1.924-.55c2.088-7.307 9.162-11.425 9.462-11.593l.993 1.736c-.062.038-6.671 3.896-8.531 10.407z" fill="#ad6327"/><path d="m29 28h-2c0-4.254 4-10.3 4.168-10.555l1.664 1.11c-.038.057-3.832 5.797-3.832 9.445z" fill="#ad6327"/><path d="m43.038 29.275c-1.866-6.533-8.468-10.369-8.538-10.407l.992-1.736c.3.171 7.378 4.286 9.466 11.593z" fill="#ad6327"/><path d="m37 28h-2c0-3.648-3.794-9.388-3.832-9.445l1.664-1.11c.168.255 4.168 6.301 4.168 10.555z" fill="#ad6327"/><path d="m22 35h10v12h-10z" fill="#f9bb4b"/><path d="m49.11 56h-8.11v-12h7.29l-.29 5z" fill="#f9bb4b"/><g fill="#ad6327"><path d="m38 47h6v2h-6z"/><path d="m38 51h6v2h-6z"/><path d="m38 43h3v2h-3z"/><path d="m38 55h3v2h-3z"/><path d="m19 38h6v2h-6z"/><path d="m29 38h6v2h-6z"/><path d="m19 42h6v2h-6z"/><path d="m28 46h2v4h-2z"/><path d="m24 46h2v4h-2z"/><path d="m28 32h2v3h-2z"/><path d="m24 32h2v3h-2z"/><path d="m29 42h6v2h-6z"/><path d="m40 36h2v2h-2z"/><path d="m19 54h2v2h-2z"/><path d="m24 56h2v2h-2z"/></g><path d="m25 15h14v4h-14z" fill="#9c2d20"/></g></svg>