<svg height="512" viewBox="0 0 56 56" width="512" xmlns="http://www.w3.org/2000/svg"><g id="039---Spots"><path id="Shape" d="m36.989 31.5c-.4986667-.1213333-.989-.2633333-1.471-.426-.0538782 1.8322306-.2390192 3.6582428-.554 5.464 1.706-1.015 2.098-3.06 2.025-5.038z"/><path id="Shape" d="m28.311 26.274c-.8830679-.9841649-1.6485543-2.0677929-2.281-3.229-.96-.036-2.086-.045-3.53-.045-4.933 0-7.349-2.5-8.467-4.37-1.756 1.914-2.613 4.921-2.613 9.14 0 5.467.359 9.626 2.146 13.457 2.088 4.467 5.094 6.733 8.934 6.733 3.814 0 6.811-2.266 8.9-6.734 1.643-3.489 2.03-7.057 2.138-10.973-1.3826397-.6781656-2.6667192-1.541059-3.817-2.565l-5.018 5.019c-.2510745.2599566-.6228779.3642126-.9725073.2726972-.3496295-.0915155-.6226744-.3645604-.7141899-.7141899-.0915154-.3496294.0127406-.7214328.2726972-.9725073zm-13.311 12.726c-.5522847 0-1-.4477153-1-1s.4477153-1 1-1 1 .4477153 1 1-.4477153 1-1 1zm2-3c-.5522847 0-1-.4477153-1-1s.4477153-1 1-1 1 .4477153 1 1-.4477153 1-1 1zm2 3c-.5522847 0-1-.4477153-1-1s.4477153-1 1-1 1 .4477153 1 1-.4477153 1-1 1zm11-2c.5522847 0 1 .4477153 1 1s-.4477153 1-1 1-1-.4477153-1-1 .4477153-1 1-1zm-2-3c.5522847 0 1 .4477153 1 1s-.4477153 1-1 1-1-.4477153-1-1 .4477153-1 1-1zm-2 3c.5522847 0 1 .4477153 1 1s-.4477153 1-1 1-1-.4477153-1-1 .4477153-1 1-1z"/><path id="Shape" d="m41 4c-4.526551.00731214-8.5873689 2.7843467-10.236 7h1.419c.2827387.0051112.5529974-.1162668.737-.331 2.0391707-2.3292039 4.984292-3.66512405 8.08-3.66512405s6.0408293 1.33592015 8.08 3.66512405c.35.433.815.33 2.156.33-1.6489516-4.21526019-5.7096981-6.99184916-10.236-6.999z"/><path id="Shape" d="m.8 49.188c1.178 1.376 3.336 3.437 10.989 4.42 1.017.134 2.1.222 3.212.284v-7.052c-2.1130954-2.2372619-3.6346999-4.9663199-4.427-7.94-1.604-.427-4.574-1.9-4.574-6.94 0-2.339.54-3.749 1.652-4.312.55445224-.2662614 1.18951016-.3113162 1.776-.126.043-5.42 1.447-9.129 4.3-11.316.2489194-.1906804.5728648-.2535653.8750474-.1698659.3021825.0836995.5476098.304291.6629526.5958659.648 1.632 2.445 4.368 7.234 4.368 1.008 0 1.859 0 2.621.019-1.3472099-3.5006621-1.4841484-7.3514856-.389-10.939-3.1381909.2081456-6.2007914 1.0551248-9 2.489-.319.172-.418.1-1.507.1-3.072.063-10.362 1.223-11.265 10.6-.966 10.043 4.47 22.761-2.16 25.919z"/><path id="Shape" d="m18 56h9c.5522847 0 1-.4477153 1-1v-6.591c-3.3736129 2.0674633-7.6203869 2.0736404-11 .016v6.575c0 .5522847.4477153 1 1 1z"/><path id="Shape" d="m8.555 29.434c-.023.011-.555.3-.555 2.526 0 2.668.991 3.959 2.04 4.582-.38445516-2.2644183-.5851095-4.5562253-.6-6.853-.464-.265-.779-.311-.885-.255z"/><path id="Shape" d="m30 46.808v7.084c1.114-.061 2.191-.147 3.23-.284 7.652-.983 9.811-3.042 10.99-4.419-4.883-2.325-3.237-10.07-2.439-17.229-.9274411.0731738-1.8601355.0433249-2.781-.089.016 4.113-1.926 6.342-4.611 7.041-.7783616 2.958146-2.2875726 5.6732815-4.389 7.896z"/><path id="Shape" d="m47.525 11.928c-1.6583619-1.8609066-4.0323834-2.92519347-6.525-2.92519347s-4.8666381 1.06428687-6.525 2.92519347c-.5621949.6860434-1.4050669 1.0802663-2.292 1.072h-1.992c-.1246037.6594358-.1885375 1.3288997-.191 2h1.962c1.5438416.044788 3.0261931-.6060811 4.038-1.773 1.2773192-1.4171373 3.0956681-2.226157 5.0035-2.226157s3.7261808.8090197 5.0035 2.226157c1.0098927 1.1654607 2.4894708 1.8162401 4.031 1.773h1.962c-.0024625-.6711003-.0663963-1.3405642-.191-2h-1.992c-.8869331.0082663-1.7298051-.3859566-2.292-1.072z"/><path id="Shape" d="m41 0c-8.2842712 0-15 6.71572875-15 15 0 8.2842712 6.7157288 15 15 15s15-6.7157288 15-15c-.0093685-8.28038757-6.7196124-14.99063148-15-15zm12.561 11.706c.3852937 1.3822279.5174201 2.8227452.39 4.252 0 .015.009.027.009.042s-.012.046-.014.07c-.5499402 6.7417665-6.1818408 11.9329673-12.946 11.9329673s-12.3960598-5.1912008-12.946-11.9329673c0-.024-.014-.045-.014-.07s.008-.027.009-.042c-.1266831-1.4295843.0054303-2.8702976.39-4.253 1.4966004-5.71103985 6.6575067-9.69361 12.5613859-9.69337499 5.9038791.000235 11.0644684 3.98321601 12.5606141 9.69437499z"/><path id="Shape" d="m41 17c-.8755085.0937442-1.6339186.648818-1.988 1.455.5788995.4078025 1.2820686.6005726 1.988.545.7223399.07284 1.4449121-.1360146 2.017-.583-.3900587-.7825057-1.1485892-1.315395-2.017-1.417z"/><path id="Shape" d="m44.44 14.474c-.8965186-.9412552-2.1396127-1.473975-3.4395-1.473975s-2.5429814.5327198-3.4395 1.473975c-1.3835224 1.6517057-3.445131 2.5818045-5.599 2.526h-1.771c.9608607 5.2141318 5.5070736 8.9991165 10.809 8.9991165s9.8481393-3.7849847 10.809-8.9991165h-1.771c-2.1536412.0560892-4.215063-.8740915-5.598-2.526zm-7.44 4.026c.2693505-2.003118 1.978854-3.4981376 4-3.4981376s3.7306495 1.4950196 4 3.4981376c0 3.327-8 3.339-8 0z"/></g></svg>