<?xml version="1.0" encoding="iso-8859-1"?>
<!-- Generator: Adobe Illustrator 16.0.0, SVG Export Plug-In . SVG Version: 6.00 Build 0)  -->
<!DOCTYPE svg PUBLIC "-//W3C//DTD SVG 1.1//EN" "http://www.w3.org/Graphics/SVG/1.1/DTD/svg11.dtd">
<svg version="1.1" id="Capa_1" xmlns="http://www.w3.org/2000/svg" xmlns:xlink="http://www.w3.org/1999/xlink" x="0px" y="0px"
	 width="45.896px" height="45.895px" viewBox="0 0 45.896 45.895" style="enable-background:new 0 0 45.896 45.895;"
	 xml:space="preserve">
<g>
	<g>
		<path d="M15.355,31.558c0.978,0,1.939-0.095,2.876-0.275c-2.034-1.667-3.705-3.801-4.838-6.291
			c-0.347-0.079-0.69-0.177-1.029-0.298c-4.632-1.648-7.06-6.759-5.411-11.393c1.264-3.547,4.641-5.931,8.403-5.931
			c1.015,0,2.021,0.175,2.99,0.52c4.633,1.65,7.061,6.76,5.411,11.393c-0.125,0.351-0.271,0.689-0.435,1.017
			c0.003,0.008,0.006,0.017,0.01,0.026c0.914,2.107,2.841,3.55,5.067,3.888c0.532-0.875,0.981-1.812,1.334-2.801
			c2.822-7.929-1.332-16.674-9.259-19.497c-1.653-0.588-3.376-0.887-5.118-0.887c-6.439,0-12.217,4.078-14.378,10.146
			c-2.508,7.045,0.493,14.736,6.756,18.342l-1.871,5.255L5.227,33.43c-0.651-1.369-2.288-1.953-3.658-1.303
			s-1.953,2.289-1.302,3.658l3.569,7.514c0.47,0.99,1.454,1.568,2.481,1.568c0.395,0,0.795-0.085,1.176-0.266l7.139-3.391
			c1.37-0.65,1.953-2.289,1.303-3.657c-0.65-1.371-2.287-1.954-3.657-1.302l-1.341,0.637l1.969-5.531
			C13.714,31.49,14.534,31.558,15.355,31.558z"/>
		<path d="M45.668,33.191c-0.603-1.392-2.217-2.028-3.608-1.428l-3.022,1.31l-1.166-2.689c2.564-1.707,4.551-4.142,5.709-7.065
			c1.5-3.79,1.435-7.938-0.187-11.678c-2.42-5.59-7.92-9.2-14.011-9.2c-1.168,0-2.06,0.089-3.187,0.352
			c2.214,1.409,3.812,3.355,4.923,6.177c2.922,0.513,5.246,2.408,6.453,5.192c0.946,2.186,0.984,4.609,0.109,6.825
			c-0.877,2.215-2.562,3.957-4.75,4.903c-1.131,0.488-2.32,0.736-3.537,0.736c-0.53,0-1.053-0.047-1.562-0.138
			c-2.916-0.517-5.423-2.459-6.627-5.239c-0.911-2.104-0.98-4.427-0.204-6.573c0.03-0.084,0.062-0.168,0.095-0.253
			c0.174-0.438,0.387-0.851,0.621-1.25c-1.053-1.789-2.682-3.142-4.662-3.847c-0.117-0.041-0.237-0.06-0.354-0.095
			c-0.592,0.889-1.101,1.842-1.502,2.858c-0.021,0.053-0.04,0.105-0.061,0.157c-1.436,3.749-1.35,7.833,0.247,11.522
			c1.815,4.191,5.362,7.27,9.59,8.547c1.41,0.426,2.896,0.652,4.42,0.652c1.165,0,2.312-0.146,3.436-0.408l1.168,2.693l-3.023,1.311
			c-1.391,0.602-2.03,2.218-1.428,3.609c0.447,1.037,1.459,1.654,2.521,1.654c0.364,0,0.733-0.072,1.089-0.227l3.021-1.309
			l1.117,2.575c0.447,1.036,1.457,1.655,2.52,1.655c0.363,0,0.734-0.073,1.089-0.227c1.392-0.603,2.031-2.219,1.429-3.609
			l-1.117-2.576l3.024-1.309C45.633,36.198,46.272,34.583,45.668,33.191z"/>
	</g>
</g>
<g>
</g>
<g>
</g>
<g>
</g>
<g>
</g>
<g>
</g>
<g>
</g>
<g>
</g>
<g>
</g>
<g>
</g>
<g>
</g>
<g>
</g>
<g>
</g>
<g>
</g>
<g>
</g>
<g>
</g>
</svg>
