<?xml version="1.0" encoding="UTF-8" standalone="no"?>
<!DOCTYPE svg PUBLIC "-//W3C//DTD SVG 1.1//EN" "http://www.w3.org/Graphics/SVG/1.1/DTD/svg11.dtd">
<svg width="100%" height="100%" viewBox="0 0 706 820" version="1.1" xmlns="http://www.w3.org/2000/svg" xmlns:xlink="http://www.w3.org/1999/xlink" xml:space="preserve" xmlns:serif="http://www.serif.com/" style="fill-rule:evenodd;clip-rule:evenodd;stroke-linejoin:round;stroke-miterlimit:2;">
    <g transform="matrix(1,0,0,1,-240,-200)">
        <g transform="matrix(1.41379,0,0,1.41379,-252,-82.7586)">
            <path d="M782.188,680L822.5,780L847,780L785.872,780L747.1,680L782.188,680ZM388.267,680L580.851,200L782.188,680L747.1,680L721.277,616.216L505.046,616.216L512.36,597.297L714.894,597.297L707.217,578.378L519.674,578.378L530.645,550L695.745,550L607.66,332.432L601.277,314.459L495.691,578.378L455.106,578.378L447.447,597.297L488.123,597.297L455.036,680L455.028,680L415.021,780L419.489,780L388.213,780L427.922,680L427.923,680L453.352,616.216L440.426,616.216L414.602,680L414.5,680L373.525,780L348,780L388.11,680L388.267,680ZM586.917,281.2L580.851,266.216L465.957,550L479.752,550L586.917,281.2Z" style="fill:rgb(255, 255, 255);"/>
        </g>
    </g>
</svg>
