<?xml version="1.0" encoding="iso-8859-1"?>
<!-- Generator: Adobe Illustrator 16.0.0, SVG Export Plug-In . SVG Version: 6.00 Build 0)  -->
<!DOCTYPE svg PUBLIC "-//W3C//DTD SVG 1.1//EN" "http://www.w3.org/Graphics/SVG/1.1/DTD/svg11.dtd">
<svg version="1.1" id="Capa_1" xmlns="http://www.w3.org/2000/svg" xmlns:xlink="http://www.w3.org/1999/xlink" x="0px" y="0px"
	 width="385px" height="385px" viewBox="0 0 385 385" style="enable-background:new 0 0 385 385;"
	 xml:space="preserve">
	<g>
		<path d="M304.726,335.239c0,0-17.317-33.234-23.518-60.289c-7.729-38.465,56.973-91.403,20.587-133.435
			c-6.002-5.261,12.133-34.284,7.73-41.897c-2.943,8.454-12.868,22.046-12.868,22.046s-0.456-40.894-8.536-49.896
			c2.021,16.085,0.817,32.62,0.817,32.62s-12.308-35.189-24.627-40.426c12.751,12.436,12.133,31.616,12.133,31.616
			s-20.587-39.329-49.266-38.599c20.937,11.391,26.086,27.57,26.086,27.57S117.636,66.174,142.263,13.966
			c-19.116,4.782-19.116,57.346-19.116,57.346S104.394,39.696,135.642,0C70.577,40.8,95.566,113.957,95.566,113.957
			s-13.966-1.104-21.322-52.57c-14.328,63.231,25.736,96.307,25.736,96.307s-15.811,27.932-6.983,41.168
			c8.828,13.218-11.771,43.018-11.397,52.571c0.374,9.551,15.449,8.453,15.449,8.453s-5.897,15.811,6.982,17.645
			c-2.942,1.098-8.08,11.396,6.621,17.282c-4.414,1.098-13.23,52.559,49.99,20.213c23.518,12.121,36.386,69.104,36.386,69.104
			L304.726,335.239z"/>
	</g>
</svg>
