<?xml version="1.0" encoding="iso-8859-1"?>
<!-- Generator: Adobe Illustrator 16.0.0, SVG Export Plug-In . SVG Version: 6.00 Build 0)  -->
<!DOCTYPE svg PUBLIC "-//W3C//DTD SVG 1.1//EN" "http://www.w3.org/Graphics/SVG/1.1/DTD/svg11.dtd">
<svg version="1.1" id="Capa_1" xmlns="http://www.w3.org/2000/svg" xmlns:xlink="http://www.w3.org/1999/xlink" x="0px" y="0px"
	 width="512px" height="512px" viewBox="0 0 512 512" style="enable-background:new 0 0 512 512;"
	 xml:space="preserve">
    <g>
        <path d="m404.494 237.255-153.78 111.422c76.559 42.277 170.305-23.533 153.78-111.422z"/>
        <path d="m376.469 183.467-159.35 115.458v20.43c2.69 3.62 5.61 7.05 8.74 10.29l168.29-121.937c-4.72-8.921-10.69-17.081-17.68-24.241z"/>
        <path d="m196.899 245.536v3.52c6.3 4.17 11.49 9.88 15.03 16.59l139.58-101.138c-65.403-35.77-146.734 6.821-154.61 81.028z"/>
        <path d="m154.681 166.102v-121.272c0-6.194-3.807-11.751-9.583-13.987l-77-29.82c-9.791-3.792-20.417 3.421-20.417 13.987v151.092c2.496-.153 104.877-.13 107 0z"/>
        <path d="m166.895 211.006c0-8.284-6.716-15-15-15h-101.428c-8.284 0-15 6.716-15 15v30.591h131.429v-30.591z"/>
        <path d="m172.12 271.597h-141.429c-8.284 0-15 6.716-15 15v210.403c0 8.284 6.716 15 15 15h141.429c8.284 0 15-6.716 15-15v-210.403c0-8.284-6.716-15-15-15z"/>
        <path d="m301.309 121.698c74.44 0 135 60.559 135 134.997 0 69.849-53.329 127.475-121.409 134.307h127.644c33.298-34.997 53.764-82.294 53.764-134.307 0-107.518-87.48-194.996-195-194.996-43.7 0-84.08 14.45-116.63 38.809v79.718c1.07 1.14 2.09 2.34 3.04 3.59 24.041-37.338 65.971-62.118 113.591-62.118z"/>
        <path d="m217.119 391.003h70.767c-26.603-2.636-50.966-13.008-70.767-28.859z"/>
        <path d="m217.119 497c0 5.26-.91 10.31-2.58 15h206.77c41.35 0 75-33.649 75-74.998v-16h-279.19z"/>
    </g>
</svg>