<?xml version="1.0"?>
<svg xmlns="http://www.w3.org/2000/svg" viewBox="0 0 64 64" width="512" height="512"><g id="Crate"><polygon points="53 11 53 47 53 53 61 61 61 3 53 11" style="fill:#966d4e"/><polygon points="53 53 47.68 53 44 53 36 53 28 53 20 53 11 53 3 61 61 61 53 53" style="fill:#7d5536"/><polygon points="3 3 11 11 17 11 20 11 28 11 36 11 44 11 53 11 61 3 3 3" style="fill:#b18860"/><polygon points="3 3 3 61 11 53 11 16.31 11 11 3 3" style="fill:#8b5e3c"/><polygon points="11 16.31 11 53 20 53 20 25.312 11 16.31" style="fill:#c49a6c"/><polygon points="20 25.312 20 53 28 53 28 33.315 20 25.312" style="fill:#8b5e3c"/><polygon points="44 38 44 11 36 11 36 30 44 38" style="fill:#8b5e3c"/><polygon points="53 47 53 11 44 11 44 38 53 47" style="fill:#c49a6c"/><polygon points="28 22 28 11 20 11 20 14 28 22" style="fill:#8b5e3c"/><polygon points="28 33.315 28 53 36 53 36 41.317 28 33.315" style="fill:#c49a6c"/><polygon points="44 49.319 44 53 47.68 53 44 49.319" style="fill:#c49a6c"/><polygon points="36 41.317 36 53 44 53 44 49.319 36 41.317" style="fill:#8b5e3c"/><polygon points="36 30 36 11 28 11 28 22 36 30" style="fill:#c49a6c"/><polygon points="20 11 17 11 20 14 20 11" style="fill:#c49a6c"/><polygon points="44 38 36 30 28 22 20 14 17 11 11 11 11 16.31 20 25.312 20 25.31 20 25.312 28 33.315 28 33.31 28 33.315 47.68 53 53 53 53 47 44 38" style="fill:#a97c50"/><rect x="11" y="6" width="2" height="2" style="fill:#8b5e3c"/><rect x="50" y="6" width="2" height="2" style="fill:#8b5e3c"/><rect x="11" y="56" width="2" height="2" style="fill:#754c29"/><rect x="51" y="56" width="2" height="2" style="fill:#754c29"/><rect x="6" y="11" width="2" height="2" style="fill:#754c29"/><rect x="6" y="51" width="2" height="2" style="fill:#754c29"/><rect x="56" y="11" width="2" height="2" style="fill:#8b5e3c"/><rect x="56" y="51" width="2" height="2" style="fill:#8b5e3c"/></g></svg>
